<svg width="100" height="101" viewBox="0 0 100 101" fill="none" xmlns="http://www.w3.org/2000/svg">
<rect y="0.0546875" width="100" height="100" rx="50" fill="#424242"/>
<g clip-path="url(#clip0_533_5527)">
<path d="M75 32.7888C72.7667 28.2055 66.3334 24.4555 58.85 26.6388C55.2741 27.6717 52.1542 29.8868 50 32.9222C47.8458 29.8868 44.7259 27.6717 41.15 26.6388C33.65 24.4888 27.2334 28.2055 25 32.7888C21.8667 39.2055 23.1667 46.4222 28.8667 54.2388C33.3334 60.3555 39.7167 66.5555 48.9834 73.7555C49.2762 73.9839 49.637 74.108 50.0084 74.108C50.3797 74.108 50.7405 73.9839 51.0334 73.7555C60.2834 66.5722 66.6834 60.4222 71.15 54.2388C76.8334 46.4222 78.1334 39.2055 75 32.7888Z" fill="white"/>
</g>
<defs>
<clipPath id="clip0_533_5527">
<rect width="60" height="60" fill="white" transform="translate(20 20.0547)"/>
</clipPath>
</defs>
</svg>
