<svg width="48" height="48" viewBox="0 0 48 48" fill="none" xmlns="http://www.w3.org/2000/svg">
<g clip-path="url(#clip0_618_857)">
<path d="M24 0C10.7453 0 0 10.7467 0 24C0 37.2547 10.7453 48 24 48C37.2547 48 48 37.2547 48 24C48 10.7467 37.2547 0 24 0ZM24 45.3333C12.2187 45.3333 2.66667 35.7827 2.66667 24C2.66667 12.2187 12.2187 2.66667 24 2.66667C35.7827 2.66667 45.3333 12.2187 45.3333 24C45.3333 35.7827 35.7827 45.3333 24 45.3333Z" fill="#343738"/>
<path d="M24.9635 8.73596C27.9809 8.73596 33.8515 9.72796 33.8515 13.3666C33.8515 14.8546 32.8182 16.136 31.2889 16.136C29.5929 16.136 28.4369 14.6893 24.9635 14.6893C19.8369 14.6893 17.1915 19.0306 17.1915 24.0733C17.1915 28.992 19.8782 33.2093 24.9635 33.2093C28.4369 33.2093 29.8409 31.4733 31.5355 31.4733C33.3969 31.4733 34.2649 33.3333 34.2649 34.2826C34.2649 38.252 28.0222 39.1613 24.9635 39.1613C16.5715 39.1613 10.7422 32.5053 10.7422 23.948C10.7422 15.3506 16.5302 8.73596 24.9635 8.73596Z" fill="#343738"/>
</g>
<defs>
<clipPath id="clip0_618_857">
<rect width="48" height="48" fill="white"/>
</clipPath>
</defs>
</svg>
