<svg width="244" height="244" viewBox="0 0 244 244" fill="none" xmlns="http://www.w3.org/2000/svg">
<g clip-path="url(#clip0_602_1801)">
<path d="M122 3.01955C93.0201 3.00583 64.9813 13.3089 42.9051 32.0837C20.8288 50.8586 6.15689 76.879 1.51667 105.485C-3.12354 134.092 2.57102 163.416 17.5806 188.206C32.5902 212.997 55.9345 231.635 83.4331 240.782C89.5331 241.911 91.7749 238.129 91.7749 234.911C91.7749 231.998 91.6529 222.391 91.6071 212.204C57.6606 219.585 50.5084 197.808 50.5084 197.808C44.9574 183.702 36.9664 179.95 36.9664 179.95C25.8949 172.371 37.8051 172.539 37.8051 172.539C50.0509 173.393 56.5016 185.105 56.5016 185.105C67.3901 203.755 85.0496 198.357 92.0036 195.246C93.1016 187.362 96.2584 181.978 99.7506 178.928C72.6514 175.848 44.1644 165.386 44.1644 118.63C44.1644 105.317 48.9376 94.428 56.7304 85.888C55.4646 82.8075 51.2861 70.4093 57.9046 53.6038C57.9046 53.6038 68.1526 50.325 91.4699 66.1088C101.421 63.4018 111.687 62.0224 122 62.0065C132.37 62.0523 142.817 63.4095 152.561 66.1088C175.848 50.325 186.081 53.6038 186.081 53.6038C192.715 70.4093 188.551 82.8228 187.286 85.888C195.109 94.428 199.836 105.317 199.836 118.63C199.836 165.493 171.288 175.802 144.128 178.822C148.505 182.604 152.409 190.03 152.409 201.407C152.409 217.724 152.272 230.87 152.272 234.881C152.272 238.129 154.468 241.926 160.659 240.737C188.153 231.578 211.489 212.933 226.489 188.138C241.488 163.344 247.173 134.019 242.524 105.416C237.874 76.8126 223.195 50.7981 201.115 32.0306C179.034 13.2631 150.994 2.96809 122.016 2.98905L122 3.01955Z" fill="#323436"/>
</g>
<defs>
<clipPath id="clip0_602_1801">
<rect width="244" height="244" fill="white"/>
</clipPath>
</defs>
</svg>
