<svg width="72" height="72" viewBox="0 0 72 72" fill="none" xmlns="http://www.w3.org/2000/svg">
<rect width="72" height="72" rx="36" fill="#2C6B8D"/>
<g clip-path="url(#clip0_517_1488)">
<path fill-rule="evenodd" clip-rule="evenodd" d="M44.3399 18.0885C44.8485 15.7571 48.1685 15.7428 48.7028 18.0685L48.7257 18.1771L48.7742 18.3828C49.057 19.5889 49.6883 20.6851 50.5896 21.5351C51.4908 22.385 52.6222 22.9511 53.8428 23.1628C56.2771 23.5885 56.2771 27.0828 53.8428 27.5056C52.6152 27.7188 51.478 28.2901 50.5742 29.1477C49.6703 30.0053 49.0401 31.1109 48.7628 32.3256L48.7028 32.5999C48.1714 34.9285 44.8485 34.9142 44.3399 32.5799L44.2857 32.3456C44.0188 31.1275 43.3953 30.0165 42.4947 29.154C41.594 28.2915 40.457 27.7167 39.2285 27.5028C36.7999 27.0799 36.7999 23.5885 39.2285 23.1685C40.4535 22.9556 41.5877 22.384 42.4875 21.5259C43.3873 20.6678 44.0121 19.562 44.2828 18.3485L44.3199 18.1771L44.3399 18.0885ZM19.1571 16.4885C18.7903 16.4881 18.427 16.56 18.088 16.7001C17.749 16.8403 17.4409 17.0458 17.1814 17.3051C16.9219 17.5643 16.716 17.8722 16.5756 18.211C16.4351 18.5499 16.3628 18.9131 16.3628 19.2799V31.1428C16.3628 32.6856 17.6142 33.9342 19.1571 33.9342H31.0228C32.5657 33.9342 33.8142 32.6856 33.8142 31.1428V19.2799C33.8146 18.9131 33.7427 18.5498 33.6026 18.2108C33.4624 17.8718 33.2569 17.5637 32.9976 17.3042C32.7384 17.0447 32.4305 16.8388 32.0917 16.6984C31.7528 16.5579 31.3896 16.4856 31.0228 16.4856H19.1571V16.4885ZM16.3628 40.9742C16.3628 39.4313 17.6142 38.1828 19.1571 38.1828H31.0228C32.5657 38.1828 33.8142 39.4313 33.8142 40.9742V52.8399C33.8142 54.3828 32.5657 55.6342 31.0228 55.6342H19.1571C18.79 55.6346 18.4265 55.5626 18.0873 55.4223C17.7481 55.282 17.4399 55.0762 17.1804 54.8166C16.9208 54.5571 16.715 54.2489 16.5747 53.9097C16.4344 53.5705 16.3624 53.207 16.3628 52.8399V40.9742ZM38.0628 40.9742C38.0628 39.4313 39.3114 38.1828 40.8542 38.1828H52.7199C54.2628 38.1828 55.5142 39.4313 55.5142 40.9742V52.8399C55.5142 54.3828 54.2628 55.6342 52.7199 55.6342H40.8571C40.4903 55.6342 40.127 55.5619 39.7882 55.4214C39.4493 55.281 39.1415 55.0751 38.8822 54.8156C38.623 54.5561 38.4174 54.248 38.2773 53.909C38.1372 53.57 38.0653 53.2067 38.0657 52.8399V40.9771L38.0628 40.9742Z" fill="white"/>
</g>
<defs>
<clipPath id="clip0_517_1488">
<rect width="40" height="40" fill="white" transform="translate(16 16)"/>
</clipPath>
</defs>
</svg>
