<svg width="164" height="138" viewBox="0 0 164 138" fill="none" xmlns="http://www.w3.org/2000/svg">
<path d="M31.9983 38.6343C38.9989 11.6348 19.4973 0.633798 15.9983 2.13433C12.4992 3.63487 11.4994 22.135 16.9983 28.6343" stroke="#1B5778" stroke-width="3" stroke-linecap="round" stroke-linejoin="round"/>
<path d="M30.8587 66.3283C27.6077 38.6261 5.44608 35.4331 2.72782 38.0989C0.00956467 40.7646 5.77649 58.3713 13.2556 62.4384" stroke="#1B5778" stroke-width="3" stroke-linecap="round" stroke-linejoin="round"/>
<path d="M41.1835 93.7346C27.1695 69.6184 5.56945 75.5149 4.1376 79.0426C2.70574 82.5704 15.0072 96.4242 23.4873 97.1765" stroke="#1B5778" stroke-width="3" stroke-linecap="round" stroke-linejoin="round"/>
<mask id="path-4-inside-1_475_3095" fill="white">
<path d="M73 60.635H57.5L58 83.635H114V60.635H98.5L99 2.63501H79L58 10.635V32.635L73 28.635V60.635Z"/>
</mask>
<path d="M57.5 60.635V-39.365C30.6016 -39.365 4.83729 -28.5287 -13.975 -9.30303C-32.7872 9.92262 -43.061 35.9163 -42.4764 62.8084L57.5 60.635ZM73 60.635V160.635C128.228 160.635 173 115.863 173 60.635H73ZM73 28.635H173C173 -2.43293 158.56 -31.7362 133.924 -50.6639C109.287 -69.5916 77.2527 -75.9935 47.2337 -67.9885L73 28.635ZM58 32.635H-42C-42 63.7029 -27.5601 93.0062 -2.92361 111.934C21.7129 130.862 53.7473 137.264 83.7663 129.259L58 32.635ZM58 10.635L22.4005 -82.8138C-16.3751 -68.0421 -42 -30.8589 -42 10.635H58ZM79 2.63501V-97.365C66.8338 -97.365 54.7697 -95.1449 43.4005 -90.8138L79 2.63501ZM99 2.63501L198.996 3.49705C199.226 -23.173 188.793 -48.8298 170.015 -67.7702C151.237 -86.7106 125.671 -97.365 99 -97.365V2.63501ZM98.5 60.635L-1.49628 59.773C-1.7262 86.443 8.70739 112.1 27.4852 131.04C46.263 149.981 71.829 160.635 98.5 160.635V60.635ZM114 60.635H214C214 5.40653 169.228 -39.365 114 -39.365V60.635ZM114 83.635V183.635C169.228 183.635 214 138.863 214 83.635H114ZM58 83.635L-41.9764 85.8084C-40.7944 140.177 3.61846 183.635 58 183.635V83.635ZM57.5 160.635H73V-39.365H57.5V160.635ZM173 60.635V28.635H-27V60.635H173ZM47.2337 -67.9885L32.2337 -63.9885L83.7663 129.259L98.7663 125.259L47.2337 -67.9885ZM158 32.635V10.635H-42V32.635H158ZM93.5995 104.084L114.6 96.0838L43.4005 -90.8138L22.4005 -82.8138L93.5995 104.084ZM79 102.635H99V-97.365H79V102.635ZM-0.996284 1.77297L-1.49628 59.773L198.496 61.497L198.996 3.49705L-0.996284 1.77297ZM98.5 160.635H114V-39.365H98.5V160.635ZM14 60.635V83.635H214V60.635H14ZM114 -16.365H58V183.635H114V-16.365ZM157.976 81.4616L157.476 58.4616L-42.4764 62.8084L-41.9764 85.8084L157.976 81.4616Z" fill="url(#paint0_linear_475_3095)" mask="url(#path-4-inside-1_475_3095)"/>
<path d="M131.804 33.3025C128.084 20.0853 135.783 6.35499 149 2.63505L150.408 7.63652C154.128 20.8537 146.429 34.584 133.212 38.3039L131.804 33.3025Z" fill="#70AFD1"/>
<path d="M135.873 60.1662C137.712 46.5592 150.234 37.0194 163.841 38.8585L163.145 44.0075C161.306 57.6145 148.784 67.1542 135.177 65.3152L135.873 60.1662Z" fill="#70AFD1"/>
<path d="M128.259 89.5667C134.973 77.5894 150.125 73.3226 162.102 80.0365L159.562 84.5688C152.848 96.5461 137.696 100.813 125.718 94.099L128.259 89.5667Z" fill="#70AFD1"/>
<path d="M111.84 113.386C121.986 104.134 137.711 104.86 146.962 115.007L143.123 118.507C132.976 127.758 117.251 127.033 108 116.886L111.84 113.386Z" fill="#70AFD1"/>
<path d="M23.5028 110.829C35.2269 103.302 50.6975 106.323 58.7733 117.464L53.3789 120.927C41.6548 128.454 26.1842 125.432 18.1084 114.292L23.5028 110.829Z" stroke="#1B5778" stroke-width="3"/>
<defs>
<linearGradient id="paint0_linear_475_3095" x1="94" y1="112.5" x2="108.586" y2="-12.8953" gradientUnits="userSpaceOnUse">
<stop stop-color="#3585B0"/>
<stop offset="1" stop-color="#D3EBF8"/>
</linearGradient>
</defs>
</svg>
