<svg width="72" height="72" viewBox="0 0 72 72" fill="none" xmlns="http://www.w3.org/2000/svg">
<rect width="72" height="72" rx="36" fill="#2C6B8D"/>
<g clip-path="url(#clip0_492_1690)">
<path d="M36.1318 39.5625C35.9951 39.8408 35.8926 40.1284 35.8242 40.4253C35.7559 40.7222 35.6924 41.0283 35.6338 41.3437H26.625V39.5625H36.1318ZM26.625 44.9062V43.125H35.6045C35.6533 43.4312 35.7217 43.7327 35.8096 44.0295C35.8975 44.3264 36.0098 44.6187 36.1465 44.9062H26.625ZM24.75 48.4687H44.5107L46.3711 50.25H22.875V21.75H39.208L47.25 29.3899V37.2942C46.9668 37.053 46.6689 36.835 46.3564 36.6401C46.0439 36.4453 45.7168 36.2737 45.375 36.1252V30.6562H37.875V23.5312H24.75V48.4687ZM39.75 24.7976V28.875H44.042L39.75 24.7976ZM40.1016 36C39.0371 36.3804 38.124 36.9741 37.3623 37.7812H26.625V36H40.1016ZM26.625 28.875H36V30.6562H26.625V28.875ZM43.5 32.4375V34.2187H26.625V32.4375H43.5ZM51 49.3594C51 49.6006 50.9072 49.8093 50.7217 49.9856C50.5361 50.1619 50.3164 50.25 50.0625 50.25C49.8086 50.25 49.5889 50.1619 49.4033 49.9856L45.1406 45.9499C44.7598 46.1912 44.3496 46.3721 43.9102 46.4927C43.4707 46.6133 43.0215 46.6782 42.5625 46.6875C41.918 46.6875 41.3125 46.5715 40.7461 46.3396C40.1797 46.1077 39.6816 45.7922 39.252 45.3933C38.8223 44.9944 38.4854 44.5212 38.2412 43.9739C37.9971 43.4265 37.875 42.8467 37.875 42.2344C37.875 41.6221 37.9971 41.0469 38.2412 40.5088C38.4854 39.9707 38.8174 39.5022 39.2373 39.1033C39.6572 38.7043 40.1553 38.3843 40.7314 38.1431C41.3076 37.9019 41.918 37.7812 42.5625 37.7812C43.207 37.7812 43.8125 37.8972 44.3789 38.1291C44.9453 38.3611 45.4385 38.6812 45.8584 39.0894C46.2783 39.4976 46.6152 39.9707 46.8691 40.5088C47.123 41.0469 47.25 41.6221 47.25 42.2344C47.25 42.6704 47.1865 43.0972 47.0596 43.5146C46.9326 43.9321 46.7373 44.3218 46.4736 44.6836L50.7217 48.7332C50.9072 48.9094 51 49.1182 51 49.3594ZM39.75 42.2344C39.75 42.6055 39.8232 42.9534 39.9697 43.2781C40.1162 43.6028 40.3164 43.8857 40.5703 44.127C40.8242 44.3682 41.1221 44.5583 41.4639 44.6975C41.8057 44.8367 42.1719 44.9062 42.5625 44.9062C42.9531 44.9062 43.3193 44.8367 43.6611 44.6975C44.0029 44.5583 44.3008 44.3682 44.5547 44.127C44.8086 43.8857 45.0088 43.6028 45.1553 43.2781C45.3018 42.9534 45.375 42.6055 45.375 42.2344C45.375 41.8633 45.3018 41.5154 45.1553 41.1907C45.0088 40.866 44.8086 40.583 44.5547 40.3418C44.3008 40.1006 44.0029 39.9104 43.6611 39.7712C43.3193 39.6321 42.9531 39.5625 42.5625 39.5625C42.1719 39.5625 41.8057 39.6321 41.4639 39.7712C41.1221 39.9104 40.8242 40.1006 40.5703 40.3418C40.3164 40.583 40.1162 40.866 39.9697 41.1907C39.8232 41.5154 39.75 41.8633 39.75 42.2344Z" fill="white"/>
</g>
<defs>
<clipPath id="clip0_492_1690">
<rect width="30" height="28.5" fill="white" transform="translate(21 21.75)"/>
</clipPath>
</defs>
</svg>
