<svg width="156" height="155" viewBox="0 0 156 155" fill="none" xmlns="http://www.w3.org/2000/svg">
<path d="M0 114H41V155H20C8.95431 155 0 146.046 0 135V114Z" fill="#4B8DB1"/>
<rect y="67" width="41" height="41" fill="#70AFD1"/>
<path d="M0 40C0 28.9543 8.95431 20 20 20H41V61H0V40Z" fill="#8CC1DD"/>
<rect x="49" y="20" width="41" height="41" fill="#B3D9EE"/>
<rect x="127.789" width="41" height="41" rx="10" transform="rotate(46.5982 127.789 0)" fill="url(#paint0_linear_472_2987)"/>
<rect x="49" y="114" width="41" height="41" fill="#70AFD1"/>
<rect x="49" y="67" width="41" height="41" fill="#8CC1DD"/>
<rect x="98" y="67" width="41" height="41" fill="#B3D9EE"/>
<path d="M98 114H139V135C139 146.046 130.046 155 119 155H98V114Z" fill="#8CC1DD"/>
<defs>
<linearGradient id="paint0_linear_472_2987" x1="148.289" y1="0" x2="148.289" y2="41" gradientUnits="userSpaceOnUse">
<stop stop-color="#EBF6FC"/>
<stop offset="1" stop-color="#B2D9EE"/>
</linearGradient>
</defs>
</svg>
