<svg width="72" height="72" viewBox="0 0 72 72" fill="none" xmlns="http://www.w3.org/2000/svg">
<rect width="72" height="72" rx="36" fill="#2C6B8D"/>
<path d="M22.2195 15.6089L20.1075 17.7179L23.25 20.8589L25.359 18.7499L22.218 15.6089H22.2195ZM49.782 15.6089L46.6395 18.7499L48.75 20.8589L51.891 17.7194L49.782 15.6089ZM36 16.5449C35.505 16.5509 35.004 16.5794 34.5 16.6409C34.485 16.6409 34.47 16.6379 34.455 16.6409C28.371 17.3384 23.529 22.2539 22.6875 28.3109C22.0155 33.1859 24.0255 37.6064 27.375 40.4534C28.7451 41.6227 29.6718 43.2273 30 44.9984V53.9984H33.42C33.942 54.8939 34.8945 55.4984 36 55.4984C37.1055 55.4984 38.058 54.8939 38.58 53.9984H42V47.9984H42.141V46.2164C42.141 44.0174 43.284 41.8004 45.141 40.0769C47.625 37.5899 49.5 34.0574 49.5 29.9999C49.5 22.5899 43.401 16.4759 36 16.5449ZM36 19.5449C41.7975 19.4639 46.5 24.2099 46.5 29.9999C46.5 33.1409 45.045 35.9069 43.0305 37.9199L43.0785 37.9679C41.0766 39.8139 39.7821 42.3011 39.4185 44.9999H32.8575C32.5275 42.4289 31.425 39.9404 29.3415 38.1554C26.691 35.9054 25.1115 32.5154 25.6395 28.6874C26.295 23.9624 30.129 20.1629 34.827 19.6424C35.2149 19.5883 35.6055 19.5563 35.997 19.5464L36 19.5449ZM15 29.9999V32.9999H19.5V29.9999H15ZM52.5 29.9999V32.9999H57V29.9999H52.5ZM23.25 42.1409L20.109 45.2804L22.2195 47.3909L25.3575 44.2499L23.25 42.1409ZM48.75 42.1409L46.641 44.2499L49.7805 47.3909L51.891 45.2804L48.75 42.1409ZM33 47.9999H39V50.9999H33V47.9999Z" fill="white"/>
</svg>
