<svg width="171" height="130" viewBox="0 0 171 130" fill="none" xmlns="http://www.w3.org/2000/svg">
<mask id="path-1-inside-1_472_3028" fill="white">
<path d="M42.5 4.8964C32 17.8966 26 68.3964 26 68.3964H140L124 8.8964C124 8.8964 120.5 -3.56522 105 2.3964C89.5 8.35802 90 8.8964 90 8.8964C90 8.8964 53 -8.10376 42.5 4.8964Z"/>
</mask>
<path d="M42.5 4.8964C32 17.8966 26 68.3964 26 68.3964H140L124 8.8964C124 8.8964 120.5 -3.56522 105 2.3964C89.5 8.35802 90 8.8964 90 8.8964C90 8.8964 53 -8.10376 42.5 4.8964Z" fill="#B3D9EE"/>
<path d="M26 68.3964L-73.3016 56.5982L-86.5846 168.396H26V68.3964ZM42.5 4.8964L120.294 67.7297L42.5 4.8964ZM90 8.8964L48.2497 99.7639L163.274 -59.1543L90 8.8964ZM105 2.3964L69.1017 -90.938L105 2.3964ZM124 8.8964L220.569 -17.0718L220.425 -17.6085L220.275 -18.1436L124 8.8964ZM140 68.3964V168.396H270.443L236.569 42.4282L140 68.3964ZM26 68.3964C125.302 80.1946 125.301 80.2029 125.3 80.2111C125.299 80.2135 125.298 80.2215 125.298 80.2264C125.297 80.2362 125.296 80.2453 125.295 80.2537C125.293 80.2705 125.291 80.2844 125.29 80.2955C125.287 80.3176 125.286 80.3284 125.286 80.3282C125.286 80.3276 125.291 80.2833 125.302 80.1976C125.323 80.0259 125.365 79.6915 125.428 79.2145C125.554 78.2557 125.758 76.7517 126.036 74.8611C126.607 70.9844 127.42 65.9517 128.42 60.8848C129.486 55.4824 130.426 51.7869 130.989 49.9748C131.261 49.0994 131.04 49.9897 130.128 52.0373C129.53 53.3796 126.632 59.8833 120.294 67.7297L-35.2945 -57.9369C-50.8119 -38.7246 -57.6229 -17.0334 -60.0042 -9.36935C-63.5193 1.94355 -66.0487 13.3106 -67.7949 22.1581C-69.6074 31.3412 -70.9504 39.746 -71.833 45.7442C-72.2814 48.7912 -72.628 51.334 -72.8713 53.1877C-72.9933 54.117 -73.0902 54.8802 -73.1618 55.4546C-73.1977 55.742 -73.2272 55.9828 -73.2505 56.1741C-73.2622 56.2698 -73.2722 56.3532 -73.2807 56.424C-73.285 56.4594 -73.2889 56.4916 -73.2923 56.5207C-73.2941 56.5352 -73.2957 56.5489 -73.2972 56.5618C-73.298 56.5683 -73.2991 56.5774 -73.2995 56.5806C-73.3005 56.5895 -73.3016 56.5982 26 68.3964ZM120.294 67.7297C96.7853 96.8366 66.3607 99.58 59.0857 99.9248C53.9892 100.166 50.3655 99.7658 48.7852 99.5528C47.0637 99.3208 46.1179 99.0814 46.0689 99.0692C45.9612 99.0425 46.1849 99.0958 46.7207 99.2706C47.2316 99.4373 47.7837 99.6351 48.3046 99.8345C48.814 100.03 49.1505 100.171 49.2181 100.2C49.2453 100.212 49.1889 100.188 49.0359 100.12C48.9588 100.086 48.8561 100.04 48.7261 99.9811C48.661 99.9517 48.5889 99.919 48.5096 99.8829C48.47 99.8648 48.4285 99.8459 48.3852 99.8261C48.3636 99.8162 48.3414 99.806 48.3188 99.7957C48.3076 99.7905 48.2902 99.7826 48.2846 99.78C48.2672 99.772 48.2497 99.7639 90 8.8964C131.75 -81.9711 131.733 -81.9793 131.715 -81.9876C131.708 -81.9904 131.69 -81.9988 131.678 -82.0044C131.653 -82.0158 131.627 -82.0275 131.601 -82.0395C131.549 -82.0634 131.494 -82.0885 131.437 -82.1147C131.322 -82.167 131.196 -82.2239 131.061 -82.2851C130.79 -82.4073 130.479 -82.5471 130.128 -82.7026C129.428 -83.0132 128.566 -83.3894 127.561 -83.8173C125.564 -84.6675 122.928 -85.7524 119.805 -86.948C113.839 -89.2317 104.811 -92.4157 94.3061 -95.0266C84.8604 -97.374 68.5034 -100.746 49.6174 -99.8509C32.4518 -99.0374 -6.53534 -93.5439 -35.2945 -57.9369L120.294 67.7297ZM90 8.8964C163.274 -59.1543 163.974 -58.3924 164.667 -57.6234C164.899 -57.362 165.594 -56.568 166.054 -56.0328C166.976 -54.9523 167.893 -53.8319 168.8 -52.6708C170.616 -50.3471 172.388 -47.8671 174.087 -45.2272C177.503 -39.9206 180.546 -34.0886 183.038 -27.7618C188.14 -14.812 190.259 -1.52663 189.973 11.1494C189.422 35.5172 180.24 53.2362 174.63 62.146C164.282 78.5795 151.696 87.5978 149.406 89.282C141.862 94.8295 135.392 97.8262 135.355 97.8437C133.169 98.905 133.638 98.5232 140.898 95.7308L69.1017 -90.938C60.8618 -87.7688 53.831 -84.9006 48.0196 -82.0797C46.1709 -81.1824 38.8566 -77.6785 30.922 -71.8438C28.4364 -70.016 15.7685 -60.909 5.3874 -44.4227C-0.239494 -35.4866 -9.42505 -17.7502 -9.97628 6.62836C-10.263 19.3098 -8.14326 32.5989 -3.04021 45.5512C-0.547058 51.8791 2.49641 57.7121 5.91232 63.0191C7.61173 65.6594 9.38395 68.1395 11.1996 70.4634C12.1068 71.6245 13.0235 72.745 13.946 73.8255C14.4062 74.3607 15.1013 75.1548 15.3333 75.4162C16.0256 76.1852 16.7258 76.9471 90 8.8964ZM140.898 95.7308C132.755 98.8631 118.904 102.337 101.464 100.043C83.3156 97.655 67.7019 89.8487 55.8706 79.878C44.883 70.6184 38.462 60.674 34.8705 53.9036C32.9769 50.3339 31.5357 47.0163 30.4277 44.1217C29.8658 42.6539 29.368 41.2381 28.9249 39.8853C28.7027 39.2069 28.4924 38.5389 28.2933 37.882C28.1936 37.5534 28.0965 37.227 28.0019 36.9029C27.9546 36.7408 27.9079 36.5792 27.8618 36.4182C27.8388 36.3376 27.8158 36.2572 27.7931 36.1769C27.7817 36.1368 27.7647 36.0766 27.759 36.0565C27.7421 35.9965 27.7252 35.9364 124 8.8964C220.275 -18.1436 220.258 -18.2038 220.241 -18.264C220.235 -18.2842 220.218 -18.3448 220.207 -18.3852C220.184 -18.4663 220.16 -18.5479 220.137 -18.6299C220.09 -18.794 220.042 -18.9601 219.993 -19.1281C219.895 -19.4642 219.792 -19.8084 219.686 -20.1604C219.472 -20.864 219.241 -21.6013 218.989 -22.3695C218.487 -23.9019 217.899 -25.5796 217.211 -27.3765C215.851 -30.9294 214.015 -35.1739 211.551 -39.8187C206.819 -48.7394 198.555 -61.4266 184.754 -73.0564C149.966 -102.374 105.552 -104.958 69.1017 -90.938L140.898 95.7308ZM27.4306 34.8646L43.4306 94.3646L236.569 42.4282L220.569 -17.0718L27.4306 34.8646ZM140 -31.6036H26V168.396H140V-31.6036Z" fill="#B3D9EE" mask="url(#path-1-inside-1_472_3028)"/>
<rect x="0.5" y="66.8962" width="170" height="6" rx="3" fill="#B3D9EE" stroke="#B3D9EE"/>
<path d="M74 100.396L84.5 93.8962L94.5 99.8962" stroke="#2C6B8D" stroke-width="4" stroke-linecap="round"/>
<circle cx="114" cy="107.396" r="22" fill="url(#paint0_linear_472_3028)"/>
<circle cx="55" cy="107.396" r="20" stroke="#2C6B8D" stroke-width="4"/>
<defs>
<linearGradient id="paint0_linear_472_3028" x1="114" y1="85.3962" x2="114" y2="129.396" gradientUnits="userSpaceOnUse">
<stop offset="0.0520833" stop-color="#D1E6F2"/>
<stop offset="0.963542" stop-color="#8CC1DD"/>
</linearGradient>
</defs>
</svg>
