<svg width="72" height="73" viewBox="0 0 72 73" fill="none" xmlns="http://www.w3.org/2000/svg">
<rect y="0.0546875" width="72" height="72" rx="36" fill="#2C6B8D"/>
<g clip-path="url(#clip0_524_1632)">
<path fill-rule="evenodd" clip-rule="evenodd" d="M48.8144 17.1373C48.7535 16.8917 48.6284 16.6667 48.4519 16.4852C48.2755 16.3038 48.054 16.1725 47.8101 16.1048C47.5663 16.0371 47.3088 16.0354 47.0641 16.0998C46.8194 16.1643 46.5961 16.2926 46.4173 16.4716L40.703 22.1859C40.5287 22.3605 40.4026 22.5773 40.337 22.8152C40.2715 23.053 40.2686 23.3038 40.3287 23.543L41.3573 27.6687C41.3437 27.6819 41.3304 27.6952 41.3173 27.7087L34.4858 34.5402C34.1073 34.9464 33.9013 35.4837 33.911 36.0388C33.9208 36.594 34.1457 37.1236 34.5383 37.5162C34.931 37.9088 35.4606 38.1337 36.0158 38.1435C36.5709 38.1533 37.1082 37.9473 37.5144 37.5687L44.3515 30.7402C44.3651 30.7261 44.3784 30.7118 44.3915 30.6973L48.5144 31.7287C48.7537 31.7889 49.0044 31.786 49.2423 31.7204C49.4801 31.6548 49.6969 31.5287 49.8715 31.3545L55.5858 25.6402C55.7656 25.4614 55.8946 25.238 55.9594 24.9928C56.0243 24.7477 56.0228 24.4898 55.955 24.2454C55.8872 24.0011 55.7557 23.7792 55.5738 23.6026C55.3919 23.4259 55.1663 23.3008 54.9201 23.2402L50.0373 22.023L48.8173 17.1373H48.8144ZM36.9058 18.223C36.9451 18.7898 36.7577 19.349 36.3848 19.7776C36.0119 20.2062 35.484 20.4692 34.9173 20.5087C31.9321 20.7156 29.0691 21.7751 26.6684 23.5614C24.2677 25.3476 22.4303 27.7855 21.3744 30.5853C20.3186 33.3851 20.0887 36.4292 20.7121 39.3559C21.3355 42.2826 22.786 44.9687 24.8912 47.0952C26.9964 49.2217 29.6678 50.6992 32.5881 51.352C35.5083 52.0048 38.5545 51.8056 41.3649 50.778C44.1752 49.7504 46.6314 47.9376 48.4418 45.555C50.2521 43.1724 51.3403 40.3202 51.5773 37.3373C51.6223 36.7705 51.8907 36.2448 52.3234 35.8759C52.7561 35.507 53.3176 35.3251 53.8844 35.3702C54.4512 35.4153 54.9769 35.6837 55.3458 36.1163C55.7147 36.549 55.8966 37.1105 55.8515 37.6773C55.5492 41.4779 54.1622 45.1119 51.8553 48.1474C49.5484 51.183 46.4186 53.4925 42.8378 54.8016C39.257 56.1107 35.3756 56.3644 31.6548 55.5325C27.9341 54.7006 24.5303 52.8181 21.8479 50.1087C19.1656 47.3992 17.3173 43.9767 16.5229 40.2478C15.7284 36.5189 16.021 32.6402 17.366 29.0727C18.711 25.5052 21.0519 22.3988 24.1104 20.1225C27.169 17.8462 30.8167 16.4958 34.6201 16.2316C35.1869 16.1924 35.7461 16.3798 36.1747 16.7527C36.6033 17.1256 36.8663 17.6563 36.9058 18.223ZM34.9858 27.6487C35.0885 27.9108 35.1385 28.1906 35.1331 28.472C35.1276 28.7534 35.0668 29.031 34.954 29.2889C34.8412 29.5468 34.6788 29.7799 34.4759 29.975C34.273 30.1701 34.0337 30.3233 33.7715 30.4259C32.8345 30.7934 32.0039 31.3887 31.3547 32.1579C30.7055 32.9271 30.2582 33.8459 30.0532 34.8313C29.8482 35.8168 29.8921 36.8377 30.1808 37.802C30.4694 38.7662 30.9939 39.6433 31.7066 40.354C32.4194 41.0647 33.298 41.5866 34.2631 41.8724C35.2282 42.1583 36.2493 42.1992 37.2341 41.9914C38.219 41.7835 39.1365 41.3335 39.9037 40.6821C40.671 40.0306 41.2639 39.1983 41.6287 38.2602C41.7307 37.9979 41.8835 37.7583 42.0781 37.5551C42.2728 37.3518 42.5055 37.1889 42.7632 37.0756C43.0208 36.9623 43.2982 36.9009 43.5795 36.8948C43.8609 36.8887 44.1407 36.9381 44.403 37.0402C44.6652 37.1422 44.9048 37.2949 45.1081 37.4896C45.3113 37.6843 45.4743 37.917 45.5875 38.1747C45.7008 38.4323 45.7623 38.7097 45.7684 38.991C45.7744 39.2724 45.725 39.5522 45.623 39.8145C44.9998 41.4164 43.9873 42.8378 42.6768 43.9501C41.3664 45.0625 39.7994 45.8307 38.1175 46.1853C36.4356 46.5399 34.6918 46.4697 33.0438 45.9812C31.3959 45.4926 29.8956 44.601 28.6788 43.387C27.4619 42.173 26.5668 40.6749 26.0744 39.028C25.5819 37.3812 25.5077 35.6376 25.8584 33.9549C26.209 32.2721 26.9736 30.7033 28.0828 29.3903C29.1921 28.0772 30.6111 27.0614 32.2115 26.4345C32.7405 26.228 33.3298 26.2399 33.8499 26.4676C34.3701 26.6953 34.7786 27.1201 34.9858 27.6487Z" fill="white"/>
</g>
<defs>
<clipPath id="clip0_524_1632">
<rect width="40" height="40" fill="white" transform="translate(16 16.0547)"/>
</clipPath>
</defs>
</svg>
