<svg width="244" height="244" viewBox="0 0 244 244" fill="none" xmlns="http://www.w3.org/2000/svg">
<g clip-path="url(#clip0_602_1805)">
<path d="M134.542 0.0150103C143.444 -0.0191512 152.346 0.0703219 161.246 0.283402L163.613 0.368799C166.346 0.466396 169.042 0.588391 172.299 0.734786C185.279 1.34477 194.136 3.3943 201.907 6.4076C209.958 9.50629 216.741 13.7029 223.524 20.4859C229.726 26.5809 234.526 33.9536 237.59 42.0914C240.603 49.8625 242.653 58.7316 243.263 71.712C243.409 74.9571 243.531 77.6654 243.629 80.3981L243.702 82.7648C243.918 91.6606 244.012 100.559 243.982 109.457L243.995 118.558V134.54C244.025 143.442 243.931 152.345 243.714 161.245L243.641 163.611C243.543 166.344 243.421 169.04 243.275 172.298C242.665 185.278 240.591 194.135 237.59 201.906C234.536 210.052 229.735 217.431 223.524 223.524C217.424 229.725 210.047 234.525 201.907 237.59C194.136 240.603 185.279 242.653 172.299 243.263C169.042 243.409 166.346 243.531 163.613 243.629L161.246 243.702C152.346 243.919 143.444 244.012 134.542 243.982L125.441 243.995H109.472C100.57 244.025 91.6673 243.931 82.7676 243.714L80.4009 243.641C77.5049 243.536 74.6095 243.414 71.715 243.275C58.7348 242.665 49.8781 240.591 42.0949 237.59C33.954 234.532 26.5802 229.731 20.4898 223.524C14.2809 217.427 9.47649 210.05 6.41171 201.906C3.39847 194.135 1.34897 185.278 0.739001 172.298C0.603135 169.403 0.481141 166.507 0.37302 163.611L0.312025 161.245C0.0871118 152.345 -0.0145605 143.442 0.00703905 134.54V109.457C-0.027009 100.559 0.0624626 91.6607 0.275426 82.7648L0.360821 80.3981C0.458416 77.6654 0.58041 74.9571 0.726802 71.712C1.33677 58.7194 3.38626 49.8747 6.39951 42.0914C9.4661 33.9496 14.2799 26.5789 20.502 20.4981C26.5882 14.2855 33.9574 9.47668 42.0949 6.4076C49.8781 3.3943 58.7226 1.34477 71.715 0.734786L80.4009 0.368799L82.7676 0.307802C91.6632 0.0829984 100.561 -0.0186757 109.46 0.00281161L134.542 0.0150103ZM122.001 61.0129C113.919 60.8986 105.895 62.3918 98.3947 65.4056C90.8948 68.4194 84.0686 72.8939 78.3129 78.5688C72.5573 84.2438 67.9868 91.0061 64.8673 98.4628C61.7478 105.919 60.1413 113.922 60.1413 122.005C60.1413 130.088 61.7478 138.09 64.8673 145.547C67.9868 153.003 72.5573 159.766 78.3129 165.441C84.0686 171.116 90.8948 175.59 98.3947 178.604C105.895 181.618 113.919 183.111 122.001 182.997C138.178 182.997 153.693 176.57 165.132 165.131C176.571 153.691 182.998 138.176 182.998 121.999C182.998 105.821 176.571 90.3059 165.132 78.8666C153.693 67.4273 138.178 61.0129 122.001 61.0129ZM122.001 85.4121C126.862 85.3225 131.693 86.2026 136.211 88.0009C140.728 89.7993 144.842 92.4798 148.312 95.886C151.782 99.2922 154.539 103.356 156.421 107.839C158.303 112.323 159.272 117.136 159.273 121.999C159.274 126.861 158.306 131.675 156.425 136.159C154.545 140.643 151.79 144.707 148.321 148.115C144.852 151.522 140.739 154.204 136.222 156.004C131.705 157.804 126.875 158.685 122.013 158.597C112.307 158.597 102.998 154.741 96.1342 147.878C89.2707 141.014 85.4149 131.705 85.4149 121.999C85.4149 112.292 89.2707 102.983 96.1342 96.1194C102.998 89.2558 112.307 85.3999 122.013 85.3999L122.001 85.4121ZM186.047 42.7136C182.112 42.8711 178.39 44.5453 175.661 47.3856C172.932 50.226 171.408 54.012 171.408 57.9508C171.408 61.8897 172.932 65.6757 175.661 68.516C178.39 71.3563 182.112 73.0306 186.047 73.1881C190.092 73.1881 193.971 71.5815 196.83 68.7217C199.69 65.8618 201.297 61.9831 201.297 57.9386C201.297 53.8942 199.69 50.0155 196.83 47.1556C193.971 44.2958 190.092 42.6892 186.047 42.6892V42.7136Z" fill="#323436"/>
</g>
<defs>
<clipPath id="clip0_602_1805">
<rect width="244" height="244" fill="white"/>
</clipPath>
</defs>
</svg>
