<svg width="244" height="244" viewBox="0 0 244 244" fill="none" xmlns="http://www.w3.org/2000/svg">
<path d="M47.8149 0C21.5204 0 0 21.52 0 47.8149V196.193C0 222.487 21.52 244 47.8149 244H196.193C222.488 244 244 222.488 244 196.193V47.8149C244 21.5204 222.488 0 196.193 0H47.8149ZM59.841 40.2649C72.4487 40.2649 80.2144 48.5416 80.4541 59.4212C80.4541 70.0606 72.4482 78.5699 59.5972 78.5699H59.3606C46.993 78.5699 38.9992 70.0611 38.9992 59.4212C38.9992 48.5418 47.2349 40.2649 59.8408 40.2649H59.841ZM168.488 91.1148C192.735 91.1148 210.911 106.963 210.911 141.019V204.596H174.063V145.282C174.063 130.376 168.73 120.207 155.394 120.207C145.214 120.207 139.146 127.061 136.482 133.683C135.509 136.051 135.27 139.36 135.27 142.674V204.596H98.4209C98.4209 204.596 98.9045 104.119 98.4209 93.715H135.277V109.417C140.174 101.862 148.933 91.1145 168.488 91.1145V91.1148ZM41.1727 93.723H78.0214V204.597H41.1727V93.723Z" fill="#323436"/>
</svg>
