<svg width="72" height="72" viewBox="0 0 72 72" fill="none" xmlns="http://www.w3.org/2000/svg">
<rect width="72" height="72" rx="36" fill="#2C6B8D"/>
<path fill-rule="evenodd" clip-rule="evenodd" d="M31.0001 36H27.2201C26.8532 36.6355 26.2869 37.1321 25.6089 37.4129C24.931 37.6937 24.1794 37.743 23.4706 37.5531C22.7618 37.3632 22.1355 36.9447 21.6888 36.3625C21.2421 35.7804 21 35.0671 21 34.3333C21 33.5996 21.2421 32.8863 21.6888 32.3041C22.1355 31.722 22.7618 31.3035 23.4706 31.1136C24.1794 30.9237 24.931 30.9729 25.6089 31.2537C26.2869 31.5345 26.8532 32.0312 27.2201 32.6667H31.0001V24.3333C31.0001 23.4493 31.3513 22.6014 31.9764 21.9763C32.6015 21.3512 33.4494 21 34.3334 21H47.6668C48.5508 21 49.3987 21.3512 50.0238 21.9763C50.6489 22.6014 51.0001 23.4493 51.0001 24.3333V47.6667C51.0001 48.5507 50.6489 49.3986 50.0238 50.0237C49.3987 50.6488 48.5508 51 47.6668 51H34.3334C33.4494 51 32.6015 50.6488 31.9764 50.0237C31.3513 49.3986 31.0001 48.5507 31.0001 47.6667V36ZM34.3334 36V47.6667H47.6668V24.3333H34.3334V32.6667H38.1134C38.4803 32.0312 39.0466 31.5345 39.7246 31.2537C40.4025 30.9729 41.1541 30.9237 41.8629 31.1136C42.5717 31.3035 43.198 31.722 43.6447 32.3041C44.0914 32.8863 44.3335 33.5996 44.3335 34.3333C44.3335 35.0671 44.0914 35.7804 43.6447 36.3625C43.198 36.9447 42.5717 37.3632 41.8629 37.5531C41.1541 37.743 40.4025 37.6937 39.7246 37.4129C39.0466 37.1321 38.4803 36.6355 38.1134 36H34.3334Z" fill="white"/>
</svg>
