<svg width="865" height="133" viewBox="0 0 865 133" fill="none" xmlns="http://www.w3.org/2000/svg">
<path d="M337 15.1094C337 9.58653 341.477 5.10938 347 5.10938H372.97C378.493 5.10938 382.97 9.58653 382.97 15.1094V36.5547C382.97 42.0775 378.493 46.5547 372.97 46.5547H337V15.1094Z" fill="#DB490B"/>
<path fill-rule="evenodd" clip-rule="evenodd" d="M362.042 21.52C361.461 21.968 360.758 22.1305 360.072 22.0634L357.17 29.5655C357.35 29.7188 357.521 29.8781 357.669 30.0688C357.816 30.2596 357.926 30.466 358.029 30.6783L365.936 29.789C366.042 29.0733 366.394 28.4083 366.998 27.9426C368.266 26.9639 370.112 27.2391 371.13 28.5586C372.148 29.8781 371.946 31.7332 370.678 32.7118C369.41 33.6904 367.564 33.4152 366.546 32.0957C366.399 31.905 366.288 31.6986 366.185 31.4863L358.278 32.3755C358.173 33.0913 357.82 33.7563 357.217 34.222C355.949 35.2006 354.103 34.9255 353.085 33.606C352.067 32.2865 352.268 30.4314 353.537 29.4528C354.14 28.9871 354.873 28.8149 355.592 28.894L358.48 21.3899C358.313 21.2525 358.155 21.0953 358.02 20.9204C357.032 19.6407 357.23 17.8271 358.46 16.878C359.69 15.9288 361.494 16.1978 362.481 17.4776C363.469 18.7573 363.272 20.5709 362.042 21.52Z" fill="white"/>
<path d="M9.67959 51.1094H0V10.1094H26.6684V18.2083H9.61368V27.3701H25.103V34.7741H9.67959V51.1094Z" fill="#DB490B"/>
<path d="M180.68 51.1098H171V10.1094H197.668V18.7088H180.614V27.8705H196.103V35.2746H180.68V51.1098Z" fill="#DB490B"/>
<path fill-rule="evenodd" clip-rule="evenodd" d="M36.9993 8.60938H44.9993L52.4993 0.109375H42.4993L36.9993 8.60938ZM22 51.1094H32.5L34.9993 43.1094H47.9993L50.5 51.1094H61L46 10.1094H37L22 51.1094ZM41.4993 22.1094L45.4993 35.6094H37.4993L41.4993 22.1094Z" fill="#DB490B"/>
<path d="M71.5 31.1094C71.5 34.5992 71.5 37.6094 72.5 39.6094C75 45.1094 81.5 43.7344 83 42.6094C84 41.8594 86 39.0953 86 37.1094C86 37.1094 94 37.1094 95 37.1094C95 39.6094 94.5 41.6094 93 44.6094C90.4064 48.4563 85.5 51.1094 79 51.1094C69 51.1094 61.5 45.118 61.5 30.6094C61.5 18.1094 67.4999 10.1093 79.5 10.1094C88 10.1094 94.5 14.6094 95 24.6094C93.0792 24.6094 92.5 24.6094 91.5 24.6094C89.5 24.6094 85.5 24.6094 85.5 24.6094C85.5 22.4203 85.0146 20.8777 84 19.6094C82 17.1094 76 17.1094 74 19.6094C72.4383 21.5615 71.5 25.6094 71.5 31.1094Z" fill="#DB490B"/>
<path d="M110 10.1094H100.5V51.1094H110V10.1094Z" fill="#DB490B"/>
<path d="M125.5 10.1094H117H116.716V51.1094H143L143 44.1094H125.5V10.1094Z" fill="#DB490B"/>
<mask id="path-9-inside-1_528_2522" fill="white">
<path fill-rule="evenodd" clip-rule="evenodd" d="M202 51.1094H211.5V36.1094H216.5L224 51.1094H234L225.5 33.6094C225.599 33.5599 225.705 33.5079 225.818 33.4528C227.983 32.3953 232.5 30.1889 232.5 22.1094C232.5 13.6089 224 10.1094 220 10.1095C216 10.1096 202 10.1094 202 10.1094V51.1094ZM217 17.1093H211V29.1093H217C220.314 29.1093 223 26.4231 223 23.1093C223 19.7956 220.314 17.1093 217 17.1093Z"/>
</mask>
<path fill-rule="evenodd" clip-rule="evenodd" d="M202 51.1094H211.5V36.1094H216.5L224 51.1094H234L225.5 33.6094C225.599 33.5599 225.705 33.5079 225.818 33.4528C227.983 32.3953 232.5 30.1889 232.5 22.1094C232.5 13.6089 224 10.1094 220 10.1095C216 10.1096 202 10.1094 202 10.1094V51.1094ZM217 17.1093H211V29.1093H217C220.314 29.1093 223 26.4231 223 23.1093C223 19.7956 220.314 17.1093 217 17.1093Z" fill="#DB490B"/>
<path d="M211.5 51.1094V52.1094H212.5V51.1094H211.5ZM202 51.1094H201V52.1094H202V51.1094ZM211.5 36.1094V35.1094H210.5V36.1094H211.5ZM216.5 36.1094L217.394 35.6622L217.118 35.1094H216.5V36.1094ZM224 51.1094L223.106 51.5566L223.382 52.1094H224V51.1094ZM234 51.1094V52.1094H235.597L234.9 50.6725L234 51.1094ZM225.5 33.6094L225.053 32.715L224.169 33.1571L224.6 34.0463L225.5 33.6094ZM225.818 33.4528L226.257 34.3513L226.257 34.3513L225.818 33.4528ZM202 10.1094L202 9.10938L201 9.10936V10.1094H202ZM211 17.1093V16.1093H210V17.1093H211ZM211 29.1093H210V30.1093H211V29.1093ZM211.5 50.1094H202V52.1094H211.5V50.1094ZM210.5 36.1094V51.1094H212.5V36.1094H210.5ZM216.5 35.1094H211.5V37.1094H216.5V35.1094ZM224.894 50.6622L217.394 35.6622L215.606 36.5566L223.106 51.5566L224.894 50.6622ZM234 50.1094H224V52.1094H234V50.1094ZM224.6 34.0463L233.1 51.5463L234.9 50.6725L226.4 33.1725L224.6 34.0463ZM225.379 32.5542C225.268 32.6089 225.157 32.663 225.053 32.715L225.947 34.5038C226.041 34.4567 226.143 34.4069 226.257 34.3513L225.379 32.5542ZM231.5 22.1094C231.5 25.947 230.434 28.2849 229.2 29.7773C227.949 31.2911 226.454 32.0292 225.379 32.5542L226.257 34.3513C227.347 33.8189 229.193 32.9251 230.742 31.0514C232.308 29.1563 233.5 26.3512 233.5 22.1094H231.5ZM220 11.1095C221.774 11.1094 224.693 11.9082 227.156 13.7263C229.584 15.518 231.5 18.2423 231.5 22.1094H233.5C233.5 17.476 231.166 14.2003 228.344 12.1171C225.557 10.0604 222.226 9.10942 220 9.10949L220 11.1095ZM202 10.1094C202 11.1094 202 11.1094 202 11.1094C202 11.1094 202 11.1094 202.001 11.1094C202.001 11.1094 202.002 11.1094 202.003 11.1094C202.004 11.1094 202.007 11.1094 202.01 11.1094C202.017 11.1094 202.027 11.1094 202.04 11.1094C202.067 11.1094 202.106 11.1094 202.158 11.1094C202.262 11.1094 202.414 11.1094 202.609 11.1094C203 11.1094 203.562 11.1094 204.25 11.1094C205.625 11.1094 207.5 11.1095 209.5 11.1095C213.5 11.1095 218 11.1095 220 11.1095L220 9.10949C218 9.10954 213.5 9.10951 209.5 9.10947C207.5 9.10945 205.625 9.10943 204.25 9.10941C203.563 9.1094 203 9.10939 202.609 9.10938C202.414 9.10938 202.262 9.10938 202.158 9.10938C202.106 9.10938 202.067 9.10938 202.04 9.10938C202.027 9.10938 202.017 9.10938 202.01 9.10938C202.007 9.10938 202.004 9.10938 202.003 9.10938C202.002 9.10938 202.001 9.10938 202.001 9.10938C202 9.10938 202 9.10938 202 9.10938C202 9.10938 202 9.10938 202 10.1094ZM203 51.1094V10.1094H201V51.1094H203ZM211 18.1093H217V16.1093H211V18.1093ZM212 29.1093V17.1093H210V29.1093H212ZM217 28.1093H211V30.1093H217V28.1093ZM222 23.1093C222 25.8708 219.761 28.1093 217 28.1093V30.1093C220.866 30.1093 224 26.9753 224 23.1093H222ZM217 18.1093C219.761 18.1093 222 20.3479 222 23.1093H224C224 19.2434 220.866 16.1093 217 16.1093V18.1093Z" fill="#DB490B" mask="url(#path-9-inside-1_528_2522)"/>
<path d="M238 51.1094V10.1094H265.5V18.1093H248V26.6093H263V33.6093H248V43.6093H265.5V51.1094H238Z" fill="#DB490B"/>
<path d="M270 51.1094V10.1094H297.5V18.1093H280V26.6093H295V33.6093H280V43.6093H297.5V51.1094H270Z" fill="#DB490B"/>
<path fill-rule="evenodd" clip-rule="evenodd" d="M161.417 28.2127C160.7 28.9292 160.342 29.8532 160.295 30.7866L149.66 33.5961C149.49 33.3321 149.311 33.0776 149.085 32.8513C148.859 32.625 148.604 32.4459 148.34 32.2762L151.112 21.7545C152.093 21.7167 153.054 21.3396 153.799 20.5948C155.364 19.0297 155.364 16.503 153.799 14.9379C152.234 13.3729 149.707 13.3729 148.142 14.9379C146.577 16.503 146.577 19.0297 148.142 20.5948C148.368 20.8211 148.623 21.0002 148.887 21.1699L146.115 31.6917C145.135 31.7294 144.173 32.1065 143.428 32.8513C141.863 34.4164 141.863 36.9431 143.428 38.5082C144.993 40.0732 147.52 40.0732 149.085 38.5082C149.83 37.7634 150.207 36.8017 150.245 35.8212L160.879 33.0305C161.03 33.2756 161.209 33.5113 161.417 33.7187C162.935 35.2366 165.405 35.2366 166.923 33.7187C168.441 32.2008 168.441 29.7306 166.923 28.2127C165.405 26.6948 162.935 26.6948 161.417 28.2127Z" fill="#424242"/>
<path d="M813.97 15.1094C813.97 9.58653 818.447 5.10938 823.97 5.10938H849.94C855.463 5.10938 859.94 9.58653 859.94 15.1094V36.5547C859.94 42.0775 855.463 46.5547 849.94 46.5547H813.97V15.1094Z" fill="#020202"/>
<path fill-rule="evenodd" clip-rule="evenodd" d="M839.011 21.52C838.431 21.968 837.727 22.1305 837.042 22.0634L834.14 29.5655C834.319 29.7188 834.491 29.8781 834.638 30.0688C834.785 30.2596 834.896 30.466 834.999 30.6783L842.906 29.789C843.012 29.0733 843.364 28.4083 843.967 27.9426C845.236 26.9639 847.081 27.2391 848.099 28.5586C849.118 29.8781 848.916 31.7332 847.648 32.7118C846.38 33.6904 844.534 33.4152 843.516 32.0957C843.368 31.905 843.258 31.6986 843.155 31.4863L835.248 32.3755C835.142 33.0913 834.79 33.7563 834.186 34.222C832.918 35.2006 831.073 34.9255 830.054 33.606C829.036 32.2865 829.238 30.4314 830.506 29.4528C831.11 28.9871 831.842 28.8149 832.562 28.894L835.449 21.3899C835.282 21.2525 835.124 21.0953 834.99 20.9204C834.002 19.6407 834.199 17.8271 835.429 16.878C836.659 15.9288 838.464 16.1978 839.451 17.4776C840.439 18.7573 840.241 20.5709 839.011 21.52Z" fill="white"/>
<path d="M486.649 51.1094H476.97V10.1094H503.638V18.2083H486.584V27.3701H502.073V34.7741H486.649V51.1094Z" fill="#020202"/>
<path d="M657.649 51.1098H647.97V10.1094H674.638V18.7088H657.584V27.8705H673.073V35.2746H657.649V51.1098Z" fill="#020202"/>
<path fill-rule="evenodd" clip-rule="evenodd" d="M513.969 8.60938H521.969L529.469 0.109375H519.469L513.969 8.60938ZM498.97 51.1094H509.47L511.969 43.1094H524.969L527.47 51.1094H537.97L522.97 10.1094H513.97L498.97 51.1094ZM518.469 22.1094L522.469 35.6094H514.469L518.469 22.1094Z" fill="#020202"/>
<path d="M548.47 31.1094C548.47 34.5992 548.47 37.6094 549.47 39.6094C551.97 45.1094 558.47 43.7344 559.97 42.6094C560.97 41.8594 562.97 39.0953 562.97 37.1094C562.97 37.1094 570.97 37.1094 571.97 37.1094C571.97 39.6094 571.47 41.6094 569.97 44.6094C567.376 48.4563 562.47 51.1094 555.97 51.1094C545.97 51.1094 538.47 45.118 538.47 30.6094C538.47 18.1094 544.47 10.1093 556.47 10.1094C564.97 10.1094 571.47 14.6094 571.97 24.6094C570.049 24.6094 569.47 24.6094 568.47 24.6094C566.47 24.6094 562.47 24.6094 562.47 24.6094C562.47 22.4203 561.984 20.8777 560.97 19.6094C558.97 17.1094 552.97 17.1094 550.97 19.6094C549.408 21.5615 548.47 25.6094 548.47 31.1094Z" fill="#020202"/>
<path d="M586.97 10.1094H577.47V51.1094H586.97V10.1094Z" fill="#020202"/>
<path d="M602.47 10.1094H593.97H593.686V51.1094H619.97L619.97 44.1094H602.47V10.1094Z" fill="#020202"/>
<mask id="path-22-inside-2_528_2522" fill="white">
<path fill-rule="evenodd" clip-rule="evenodd" d="M678.97 51.1094H688.47V36.1094H693.47L700.97 51.1094H710.97L702.47 33.6094C702.569 33.5599 702.675 33.5079 702.788 33.4528C704.953 32.3953 709.47 30.1889 709.47 22.1094C709.47 13.6089 700.97 10.1094 696.97 10.1095C692.97 10.1096 678.97 10.1094 678.97 10.1094V51.1094ZM693.97 17.1093H687.97V29.1093H693.97C697.284 29.1093 699.97 26.4231 699.97 23.1093C699.97 19.7956 697.284 17.1093 693.97 17.1093Z"/>
</mask>
<path fill-rule="evenodd" clip-rule="evenodd" d="M678.97 51.1094H688.47V36.1094H693.47L700.97 51.1094H710.97L702.47 33.6094C702.569 33.5599 702.675 33.5079 702.788 33.4528C704.953 32.3953 709.47 30.1889 709.47 22.1094C709.47 13.6089 700.97 10.1094 696.97 10.1095C692.97 10.1096 678.97 10.1094 678.97 10.1094V51.1094ZM693.97 17.1093H687.97V29.1093H693.97C697.284 29.1093 699.97 26.4231 699.97 23.1093C699.97 19.7956 697.284 17.1093 693.97 17.1093Z" fill="#020202"/>
<path d="M688.47 51.1094V52.1094H689.47V51.1094H688.47ZM678.97 51.1094H677.97V52.1094H678.97V51.1094ZM688.47 36.1094V35.1094H687.47V36.1094H688.47ZM693.47 36.1094L694.364 35.6622L694.088 35.1094H693.47V36.1094ZM700.97 51.1094L700.075 51.5566L700.352 52.1094H700.97V51.1094ZM710.97 51.1094V52.1094H712.567L711.869 50.6725L710.97 51.1094ZM702.47 33.6094L702.023 32.715L701.138 33.1571L701.57 34.0463L702.47 33.6094ZM702.788 33.4528L703.227 34.3513L703.227 34.3513L702.788 33.4528ZM678.97 10.1094L678.97 9.10938L677.97 9.10936V10.1094H678.97ZM687.97 17.1093V16.1093H686.97V17.1093H687.97ZM687.97 29.1093H686.97V30.1093H687.97V29.1093ZM688.47 50.1094H678.97V52.1094H688.47V50.1094ZM687.47 36.1094V51.1094H689.47V36.1094H687.47ZM693.47 35.1094H688.47V37.1094H693.47V35.1094ZM701.864 50.6622L694.364 35.6622L692.575 36.5566L700.075 51.5566L701.864 50.6622ZM710.97 50.1094H700.97V52.1094H710.97V50.1094ZM701.57 34.0463L710.07 51.5463L711.869 50.6725L703.369 33.1725L701.57 34.0463ZM702.349 32.5542C702.237 32.6089 702.127 32.663 702.023 32.715L702.917 34.5038C703.011 34.4567 703.113 34.4069 703.227 34.3513L702.349 32.5542ZM708.47 22.1094C708.47 25.947 707.403 28.2849 706.17 29.7773C704.919 31.2911 703.424 32.0292 702.349 32.5542L703.227 34.3513C704.317 33.8189 706.163 32.9251 707.712 31.0514C709.278 29.1563 710.47 26.3512 710.47 22.1094H708.47ZM696.97 11.1095C698.744 11.1094 701.663 11.9082 704.126 13.7263C706.554 15.518 708.47 18.2423 708.47 22.1094H710.47C710.47 17.476 708.136 14.2003 705.314 12.1171C702.527 10.0604 699.196 9.10942 696.97 9.10949L696.97 11.1095ZM678.97 10.1094C678.97 11.1094 678.97 11.1094 678.97 11.1094C678.97 11.1094 678.97 11.1094 678.97 11.1094C678.971 11.1094 678.972 11.1094 678.972 11.1094C678.974 11.1094 678.977 11.1094 678.98 11.1094C678.987 11.1094 678.997 11.1094 679.01 11.1094C679.037 11.1094 679.076 11.1094 679.128 11.1094C679.232 11.1094 679.384 11.1094 679.579 11.1094C679.97 11.1094 680.532 11.1094 681.22 11.1094C682.595 11.1094 684.47 11.1095 686.47 11.1095C690.47 11.1095 694.97 11.1095 696.97 11.1095L696.97 9.10949C694.97 9.10954 690.47 9.10951 686.47 9.10947C684.47 9.10945 682.595 9.10943 681.22 9.10941C680.532 9.1094 679.97 9.10939 679.579 9.10938C679.384 9.10938 679.232 9.10938 679.128 9.10938C679.076 9.10938 679.037 9.10938 679.01 9.10938C678.997 9.10938 678.987 9.10938 678.98 9.10938C678.977 9.10938 678.974 9.10938 678.972 9.10938C678.972 9.10938 678.971 9.10938 678.971 9.10938C678.97 9.10938 678.97 9.10938 678.97 9.10938C678.97 9.10938 678.97 9.10938 678.97 10.1094ZM679.97 51.1094V10.1094H677.97V51.1094H679.97ZM687.97 18.1093H693.97V16.1093H687.97V18.1093ZM688.97 29.1093V17.1093H686.97V29.1093H688.97ZM693.97 28.1093H687.97V30.1093H693.97V28.1093ZM698.97 23.1093C698.97 25.8708 696.731 28.1093 693.97 28.1093V30.1093C697.836 30.1093 700.97 26.9753 700.97 23.1093H698.97ZM693.97 18.1093C696.731 18.1093 698.97 20.3479 698.97 23.1093H700.97C700.97 19.2434 697.836 16.1093 693.97 16.1093V18.1093Z" fill="#020202" mask="url(#path-22-inside-2_528_2522)"/>
<path d="M714.97 51.1094V10.1094H742.47V18.1093H724.97V26.6093H739.97V33.6093H724.97V43.6093H742.47V51.1094H714.97Z" fill="#020202"/>
<path d="M746.97 51.1094V10.1094H774.47V18.1093H756.97V26.6093H771.97V33.6093H756.97V43.6093H774.47V51.1094H746.97Z" fill="#020202"/>
<path fill-rule="evenodd" clip-rule="evenodd" d="M638.387 28.2127C637.67 28.9292 637.312 29.8532 637.265 30.7866L626.63 33.5961C626.46 33.3321 626.281 33.0776 626.055 32.8513C625.829 32.625 625.574 32.4459 625.31 32.2762L628.082 21.7545C629.062 21.7167 630.024 21.3396 630.769 20.5948C632.334 19.0297 632.334 16.503 630.769 14.9379C629.204 13.3729 626.677 13.3729 625.112 14.9379C623.547 16.503 623.547 19.0297 625.112 20.5948C625.338 20.8211 625.593 21.0002 625.857 21.1699L623.085 31.6917C622.104 31.7294 621.143 32.1065 620.398 32.8513C618.833 34.4164 618.833 36.9431 620.398 38.5082C621.963 40.0732 624.49 40.0732 626.055 38.5082C626.8 37.7634 627.177 36.8017 627.214 35.8212L637.849 33.0305C638 33.2756 638.179 33.5113 638.387 33.7187C639.905 35.2366 642.375 35.2366 643.893 33.7187C645.411 32.2008 645.411 29.7306 643.893 28.2127C642.375 26.6948 639.905 26.6948 638.387 28.2127Z" fill="#424242"/>
<path d="M337 86.1094C337 80.5865 341.477 76.1094 347 76.1094H372.97C378.493 76.1094 382.97 80.5865 382.97 86.1094V107.555C382.97 113.078 378.493 117.555 372.97 117.555H337V86.1094Z" fill="#424242"/>
<path fill-rule="evenodd" clip-rule="evenodd" d="M362.042 92.52C361.461 92.968 360.758 93.1305 360.072 93.0634L357.17 100.565C357.35 100.719 357.521 100.878 357.669 101.069C357.816 101.26 357.926 101.466 358.029 101.678L365.936 100.789C366.042 100.073 366.394 99.4083 366.998 98.9426C368.266 97.9639 370.112 98.2391 371.13 99.5586C372.148 100.878 371.946 102.733 370.678 103.712C369.41 104.69 367.564 104.415 366.546 103.096C366.399 102.905 366.288 102.699 366.185 102.486L358.278 103.376C358.173 104.091 357.82 104.756 357.217 105.222C355.949 106.201 354.103 105.925 353.085 104.606C352.067 103.287 352.268 101.431 353.537 100.453C354.14 99.9871 354.873 99.8149 355.592 99.894L358.48 92.3899C358.313 92.2525 358.155 92.0953 358.02 91.9204C357.032 90.6407 357.23 88.8271 358.46 87.878C359.69 86.9288 361.494 87.1978 362.481 88.4776C363.469 89.7573 363.272 91.5709 362.042 92.52Z" fill="white"/>
<path d="M9.67959 122.109H0V81.1094H26.6684V89.2083H9.61368V98.3701H25.103V105.774H9.67959V122.109Z" fill="#424242"/>
<path d="M180.68 122.11H171V81.1094H197.668V89.7088H180.614V98.8705H196.103V106.275H180.68V122.11Z" fill="#424242"/>
<path fill-rule="evenodd" clip-rule="evenodd" d="M36.9993 79.6094H44.9993L52.4993 71.1094H42.4993L36.9993 79.6094ZM22 122.109H32.5L34.9993 114.109H47.9993L50.5 122.109H61L46 81.1094H37L22 122.109ZM41.4993 93.1094L45.4993 106.609H37.4993L41.4993 93.1094Z" fill="#424242"/>
<path d="M71.5 102.109C71.5 105.599 71.5 108.609 72.5 110.609C75 116.109 81.5 114.734 83 113.609C84 112.859 86 110.095 86 108.109C86 108.109 94 108.109 95 108.109C95 110.609 94.5 112.609 93 115.609C90.4064 119.456 85.5 122.109 79 122.109C69 122.109 61.5 116.118 61.5 101.609C61.5 89.1094 67.4999 81.1093 79.5 81.1094C88 81.1094 94.5 85.6094 95 95.6094C93.0792 95.6094 92.5 95.6094 91.5 95.6094C89.5 95.6094 85.5 95.6094 85.5 95.6094C85.5 93.4203 85.0146 91.8777 84 90.6094C82 88.1094 76 88.1094 74 90.6094C72.4383 92.5615 71.5 96.6094 71.5 102.109Z" fill="#424242"/>
<path d="M110 81.1094H100.5V122.109H110V81.1094Z" fill="#424242"/>
<path d="M125.5 81.1094H117H116.716V122.109H143L143 115.109H125.5V81.1094Z" fill="#424242"/>
<mask id="path-35-inside-3_528_2522" fill="white">
<path fill-rule="evenodd" clip-rule="evenodd" d="M202 122.109H211.5V107.109H216.5L224 122.109H234L225.5 104.609C225.599 104.56 225.705 104.508 225.818 104.453C227.983 103.395 232.5 101.189 232.5 93.1094C232.5 84.6089 224 81.1094 220 81.1095C216 81.1096 202 81.1094 202 81.1094V122.109ZM217 88.1093H211V100.109H217C220.314 100.109 223 97.4231 223 94.1093C223 90.7956 220.314 88.1093 217 88.1093Z"/>
</mask>
<path fill-rule="evenodd" clip-rule="evenodd" d="M202 122.109H211.5V107.109H216.5L224 122.109H234L225.5 104.609C225.599 104.56 225.705 104.508 225.818 104.453C227.983 103.395 232.5 101.189 232.5 93.1094C232.5 84.6089 224 81.1094 220 81.1095C216 81.1096 202 81.1094 202 81.1094V122.109ZM217 88.1093H211V100.109H217C220.314 100.109 223 97.4231 223 94.1093C223 90.7956 220.314 88.1093 217 88.1093Z" fill="#424242"/>
<path d="M211.5 122.109V123.109H212.5V122.109H211.5ZM202 122.109H201V123.109H202V122.109ZM211.5 107.109V106.109H210.5V107.109H211.5ZM216.5 107.109L217.394 106.662L217.118 106.109H216.5V107.109ZM224 122.109L223.106 122.557L223.382 123.109H224V122.109ZM234 122.109V123.109H235.597L234.9 121.672L234 122.109ZM225.5 104.609L225.053 103.715L224.169 104.157L224.6 105.046L225.5 104.609ZM225.818 104.453L226.257 105.351L226.257 105.351L225.818 104.453ZM202 81.1094L202 80.1094L201 80.1094V81.1094H202ZM211 88.1093V87.1093H210V88.1093H211ZM211 100.109H210V101.109H211V100.109ZM211.5 121.109H202V123.109H211.5V121.109ZM210.5 107.109V122.109H212.5V107.109H210.5ZM216.5 106.109H211.5V108.109H216.5V106.109ZM224.894 121.662L217.394 106.662L215.606 107.557L223.106 122.557L224.894 121.662ZM234 121.109H224V123.109H234V121.109ZM224.6 105.046L233.1 122.546L234.9 121.672L226.4 104.172L224.6 105.046ZM225.379 103.554C225.268 103.609 225.157 103.663 225.053 103.715L225.947 105.504C226.041 105.457 226.143 105.407 226.257 105.351L225.379 103.554ZM231.5 93.1094C231.5 96.947 230.434 99.2849 229.2 100.777C227.949 102.291 226.454 103.029 225.379 103.554L226.257 105.351C227.347 104.819 229.193 103.925 230.742 102.051C232.308 100.156 233.5 97.3512 233.5 93.1094H231.5ZM220 82.1095C221.774 82.1094 224.693 82.9082 227.156 84.7263C229.584 86.518 231.5 89.2423 231.5 93.1094H233.5C233.5 88.476 231.166 85.2003 228.344 83.1171C225.557 81.0604 222.226 80.1094 220 80.1095L220 82.1095ZM202 81.1094C202 82.1094 202 82.1094 202 82.1094C202 82.1094 202 82.1094 202.001 82.1094C202.001 82.1094 202.002 82.1094 202.003 82.1094C202.004 82.1094 202.007 82.1094 202.01 82.1094C202.017 82.1094 202.027 82.1094 202.04 82.1094C202.067 82.1094 202.106 82.1094 202.158 82.1094C202.262 82.1094 202.414 82.1094 202.609 82.1094C203 82.1094 203.562 82.1094 204.25 82.1094C205.625 82.1094 207.5 82.1095 209.5 82.1095C213.5 82.1095 218 82.1095 220 82.1095L220 80.1095C218 80.1095 213.5 80.1095 209.5 80.1095C207.5 80.1095 205.625 80.1094 204.25 80.1094C203.563 80.1094 203 80.1094 202.609 80.1094C202.414 80.1094 202.262 80.1094 202.158 80.1094C202.106 80.1094 202.067 80.1094 202.04 80.1094C202.027 80.1094 202.017 80.1094 202.01 80.1094C202.007 80.1094 202.004 80.1094 202.003 80.1094C202.002 80.1094 202.001 80.1094 202.001 80.1094C202 80.1094 202 80.1094 202 80.1094C202 80.1094 202 80.1094 202 81.1094ZM203 122.109V81.1094H201V122.109H203ZM211 89.1093H217V87.1093H211V89.1093ZM212 100.109V88.1093H210V100.109H212ZM217 99.1093H211V101.109H217V99.1093ZM222 94.1093C222 96.8708 219.761 99.1093 217 99.1093V101.109C220.866 101.109 224 97.9753 224 94.1093H222ZM217 89.1093C219.761 89.1093 222 91.3479 222 94.1093H224C224 90.2434 220.866 87.1093 217 87.1093V89.1093Z" fill="#424242" mask="url(#path-35-inside-3_528_2522)"/>
<path d="M238 122.109V81.1094H265.5V89.1093H248V97.6093H263V104.609H248V114.609H265.5V122.109H238Z" fill="#424242"/>
<path d="M270 122.109V81.1094H297.5V89.1093H280V97.6093H295V104.609H280V114.609H297.5V122.109H270Z" fill="#424242"/>
<path fill-rule="evenodd" clip-rule="evenodd" d="M161.417 99.2127C160.7 99.9292 160.342 100.853 160.295 101.787L149.66 104.596C149.49 104.332 149.311 104.078 149.085 103.851C148.859 103.625 148.604 103.446 148.34 103.276L151.112 92.7545C152.093 92.7167 153.054 92.3396 153.799 91.5948C155.364 90.0297 155.364 87.503 153.799 85.9379C152.234 84.3729 149.707 84.3729 148.142 85.9379C146.577 87.503 146.577 90.0297 148.142 91.5948C148.368 91.8211 148.623 92.0002 148.887 92.1699L146.115 102.692C145.135 102.729 144.173 103.106 143.428 103.851C141.863 105.416 141.863 107.943 143.428 109.508C144.993 111.073 147.52 111.073 149.085 109.508C149.83 108.763 150.207 107.802 150.245 106.821L160.879 104.03C161.03 104.276 161.209 104.511 161.417 104.719C162.935 106.237 165.405 106.237 166.923 104.719C168.441 103.201 168.441 100.731 166.923 99.2127C165.405 97.6948 162.935 97.6948 161.417 99.2127Z" fill="#424242"/>
<g filter="url(#filter0_d_528_2522)">
<path d="M813.97 86.1094C813.97 80.5865 818.447 76.1094 823.97 76.1094H849.94C855.463 76.1094 859.94 80.5865 859.94 86.1094V107.555C859.94 113.078 855.463 117.555 849.94 117.555H813.97V86.1094Z" stroke="#E0E0E0" shape-rendering="crispEdges"/>
<path fill-rule="evenodd" clip-rule="evenodd" d="M839.011 92.52C838.431 92.968 837.727 93.1305 837.042 93.0634L834.14 100.565C834.319 100.719 834.491 100.878 834.638 101.069C834.785 101.26 834.896 101.466 834.999 101.678L842.906 100.789C843.012 100.073 843.364 99.4083 843.967 98.9426C845.236 97.9639 847.081 98.2391 848.099 99.5586C849.118 100.878 848.916 102.733 847.648 103.712C846.38 104.69 844.534 104.415 843.516 103.096C843.368 102.905 843.258 102.699 843.155 102.486L835.248 103.376C835.142 104.091 834.79 104.756 834.186 105.222C832.918 106.201 831.073 105.925 830.054 104.606C829.036 103.287 829.238 101.431 830.506 100.453C831.11 99.9871 831.842 99.8149 832.562 99.894L835.449 92.3899C835.282 92.2525 835.124 92.0953 834.99 91.9204C834.002 90.6407 834.199 88.8271 835.429 87.878C836.659 86.9288 838.464 87.1978 839.451 88.4776C840.439 89.7573 840.241 91.5709 839.011 92.52Z" fill="#F5F5F5"/>
</g>
<g filter="url(#filter1_d_528_2522)">
<path d="M486.649 122.109H476.97V81.1094H503.638V89.2083H486.584V98.3701H502.073V105.774H486.649V122.109Z" fill="white"/>
<path d="M657.649 122.11H647.97V81.1094H674.638V89.7088H657.584V98.8705H673.073V106.275H657.649V122.11Z" fill="white"/>
<path fill-rule="evenodd" clip-rule="evenodd" d="M513.969 79.6094H521.969L529.469 71.1094H519.469L513.969 79.6094ZM498.97 122.109H509.47L511.969 114.109H524.969L527.47 122.109H537.97L522.97 81.1094H513.97L498.97 122.109ZM518.469 93.1094L522.469 106.609H514.469L518.469 93.1094Z" fill="white"/>
<path d="M548.47 102.109C548.47 105.599 548.47 108.609 549.47 110.609C551.97 116.109 558.47 114.734 559.97 113.609C560.97 112.859 562.97 110.095 562.97 108.109C562.97 108.109 570.97 108.109 571.97 108.109C571.97 110.609 571.47 112.609 569.97 115.609C567.376 119.456 562.47 122.109 555.97 122.109C545.97 122.109 538.47 116.118 538.47 101.609C538.47 89.1094 544.47 81.1093 556.47 81.1094C564.97 81.1094 571.47 85.6094 571.97 95.6094C570.049 95.6094 569.47 95.6094 568.47 95.6094C566.47 95.6094 562.47 95.6094 562.47 95.6094C562.47 93.4203 561.984 91.8777 560.97 90.6094C558.97 88.1094 552.97 88.1094 550.97 90.6094C549.408 92.5615 548.47 96.6094 548.47 102.109Z" fill="white"/>
<path d="M586.97 81.1094H577.47V122.109H586.97V81.1094Z" fill="white"/>
<path d="M602.47 81.1094H593.97H593.686V122.109H619.97L619.97 115.109H602.47V81.1094Z" fill="white"/>
<mask id="path-48-inside-4_528_2522" fill="white">
<path fill-rule="evenodd" clip-rule="evenodd" d="M678.97 122.109H688.47V107.109H693.47L700.97 122.109H710.97L702.47 104.609C702.569 104.56 702.675 104.508 702.788 104.453C704.953 103.395 709.47 101.189 709.47 93.1094C709.47 84.6089 700.97 81.1094 696.97 81.1095C692.97 81.1096 678.97 81.1094 678.97 81.1094V122.109ZM693.97 88.1093H687.97V100.109H693.97C697.284 100.109 699.97 97.4231 699.97 94.1093C699.97 90.7956 697.284 88.1093 693.97 88.1093Z"/>
</mask>
<path fill-rule="evenodd" clip-rule="evenodd" d="M678.97 122.109H688.47V107.109H693.47L700.97 122.109H710.97L702.47 104.609C702.569 104.56 702.675 104.508 702.788 104.453C704.953 103.395 709.47 101.189 709.47 93.1094C709.47 84.6089 700.97 81.1094 696.97 81.1095C692.97 81.1096 678.97 81.1094 678.97 81.1094V122.109ZM693.97 88.1093H687.97V100.109H693.97C697.284 100.109 699.97 97.4231 699.97 94.1093C699.97 90.7956 697.284 88.1093 693.97 88.1093Z" fill="white"/>
<path d="M688.47 122.109V123.109H689.47V122.109H688.47ZM678.97 122.109H677.97V123.109H678.97V122.109ZM688.47 107.109V106.109H687.47V107.109H688.47ZM693.47 107.109L694.364 106.662L694.088 106.109H693.47V107.109ZM700.97 122.109L700.075 122.557L700.352 123.109H700.97V122.109ZM710.97 122.109V123.109H712.567L711.869 121.672L710.97 122.109ZM702.47 104.609L702.023 103.715L701.138 104.157L701.57 105.046L702.47 104.609ZM702.788 104.453L703.227 105.351L703.227 105.351L702.788 104.453ZM678.97 81.1094L678.97 80.1094L677.97 80.1094V81.1094H678.97ZM687.97 88.1093V87.1093H686.97V88.1093H687.97ZM687.97 100.109H686.97V101.109H687.97V100.109ZM688.47 121.109H678.97V123.109H688.47V121.109ZM687.47 107.109V122.109H689.47V107.109H687.47ZM693.47 106.109H688.47V108.109H693.47V106.109ZM701.864 121.662L694.364 106.662L692.575 107.557L700.075 122.557L701.864 121.662ZM710.97 121.109H700.97V123.109H710.97V121.109ZM701.57 105.046L710.07 122.546L711.869 121.672L703.369 104.172L701.57 105.046ZM702.349 103.554C702.237 103.609 702.127 103.663 702.023 103.715L702.917 105.504C703.011 105.457 703.113 105.407 703.227 105.351L702.349 103.554ZM708.47 93.1094C708.47 96.947 707.403 99.2849 706.17 100.777C704.919 102.291 703.424 103.029 702.349 103.554L703.227 105.351C704.317 104.819 706.163 103.925 707.712 102.051C709.278 100.156 710.47 97.3512 710.47 93.1094H708.47ZM696.97 82.1095C698.744 82.1094 701.663 82.9082 704.126 84.7263C706.554 86.518 708.47 89.2423 708.47 93.1094H710.47C710.47 88.476 708.136 85.2003 705.314 83.1171C702.527 81.0604 699.196 80.1094 696.97 80.1095L696.97 82.1095ZM678.97 81.1094C678.97 82.1094 678.97 82.1094 678.97 82.1094C678.97 82.1094 678.97 82.1094 678.97 82.1094C678.971 82.1094 678.972 82.1094 678.972 82.1094C678.974 82.1094 678.977 82.1094 678.98 82.1094C678.987 82.1094 678.997 82.1094 679.01 82.1094C679.037 82.1094 679.076 82.1094 679.128 82.1094C679.232 82.1094 679.384 82.1094 679.579 82.1094C679.97 82.1094 680.532 82.1094 681.22 82.1094C682.595 82.1094 684.47 82.1095 686.47 82.1095C690.47 82.1095 694.97 82.1095 696.97 82.1095L696.97 80.1095C694.97 80.1095 690.47 80.1095 686.47 80.1095C684.47 80.1095 682.595 80.1094 681.22 80.1094C680.532 80.1094 679.97 80.1094 679.579 80.1094C679.384 80.1094 679.232 80.1094 679.128 80.1094C679.076 80.1094 679.037 80.1094 679.01 80.1094C678.997 80.1094 678.987 80.1094 678.98 80.1094C678.977 80.1094 678.974 80.1094 678.972 80.1094C678.972 80.1094 678.971 80.1094 678.971 80.1094C678.97 80.1094 678.97 80.1094 678.97 80.1094C678.97 80.1094 678.97 80.1094 678.97 81.1094ZM679.97 122.109V81.1094H677.97V122.109H679.97ZM687.97 89.1093H693.97V87.1093H687.97V89.1093ZM688.97 100.109V88.1093H686.97V100.109H688.97ZM693.97 99.1093H687.97V101.109H693.97V99.1093ZM698.97 94.1093C698.97 96.8708 696.731 99.1093 693.97 99.1093V101.109C697.836 101.109 700.97 97.9753 700.97 94.1093H698.97ZM693.97 89.1093C696.731 89.1093 698.97 91.3479 698.97 94.1093H700.97C700.97 90.2434 697.836 87.1093 693.97 87.1093V89.1093Z" fill="white" mask="url(#path-48-inside-4_528_2522)"/>
<path d="M714.97 122.109V81.1094H742.47V89.1093H724.97V97.6093H739.97V104.609H724.97V114.609H742.47V122.109H714.97Z" fill="white"/>
<path d="M746.97 122.109V81.1094H774.47V89.1093H756.97V97.6093H771.97V104.609H756.97V114.609H774.47V122.109H746.97Z" fill="white"/>
<path fill-rule="evenodd" clip-rule="evenodd" d="M638.387 99.2127C637.67 99.9292 637.312 100.853 637.265 101.787L626.63 104.596C626.46 104.332 626.281 104.078 626.055 103.851C625.829 103.625 625.574 103.446 625.31 103.276L628.082 92.7545C629.062 92.7167 630.024 92.3396 630.769 91.5948C632.334 90.0297 632.334 87.503 630.769 85.9379C629.204 84.3729 626.677 84.3729 625.112 85.9379C623.547 87.503 623.547 90.0297 625.112 91.5948C625.338 91.8211 625.593 92.0002 625.857 92.1699L623.085 102.692C622.104 102.729 621.143 103.106 620.398 103.851C618.833 105.416 618.833 107.943 620.398 109.508C621.963 111.073 624.49 111.073 626.055 109.508C626.8 108.763 627.177 107.802 627.214 106.821L637.849 104.03C638 104.276 638.179 104.511 638.387 104.719C639.905 106.237 642.375 106.237 643.893 104.719C645.411 103.201 645.411 100.731 643.893 99.2127C642.375 97.6948 639.905 97.6948 638.387 99.2127Z" fill="white"/>
</g>
<defs>
<filter id="filter0_d_528_2522" x="813.47" y="75.6094" width="50.9698" height="45.4453" filterUnits="userSpaceOnUse" color-interpolation-filters="sRGB">
<feFlood flood-opacity="0" result="BackgroundImageFix"/>
<feColorMatrix in="SourceAlpha" type="matrix" values="0 0 0 0 0 0 0 0 0 0 0 0 0 0 0 0 0 0 127 0" result="hardAlpha"/>
<feOffset dx="3" dy="2"/>
<feGaussianBlur stdDeviation="0.5"/>
<feComposite in2="hardAlpha" operator="out"/>
<feColorMatrix type="matrix" values="0 0 0 0 0 0 0 0 0 0 0 0 0 0 0 0 0 0 0.25 0"/>
<feBlend mode="normal" in2="BackgroundImageFix" result="effect1_dropShadow_528_2522"/>
<feBlend mode="normal" in="SourceGraphic" in2="effect1_dropShadow_528_2522" result="shape"/>
</filter>
<filter id="filter1_d_528_2522" x="473.97" y="69.1094" width="309.5" height="63" filterUnits="userSpaceOnUse" color-interpolation-filters="sRGB">
<feFlood flood-opacity="0" result="BackgroundImageFix"/>
<feColorMatrix in="SourceAlpha" type="matrix" values="0 0 0 0 0 0 0 0 0 0 0 0 0 0 0 0 0 0 127 0" result="hardAlpha"/>
<feOffset dx="3" dy="4"/>
<feGaussianBlur stdDeviation="3"/>
<feComposite in2="hardAlpha" operator="out"/>
<feColorMatrix type="matrix" values="0 0 0 0 0 0 0 0 0 0 0 0 0 0 0 0 0 0 0.5 0"/>
<feBlend mode="normal" in2="BackgroundImageFix" result="effect1_dropShadow_528_2522"/>
<feBlend mode="normal" in="SourceGraphic" in2="effect1_dropShadow_528_2522" result="shape"/>
</filter>
</defs>
</svg>
