<svg width="865" height="211" viewBox="0 0 865 211" fill="none" xmlns="http://www.w3.org/2000/svg">
<path d="M14.4922 23.3887V26.1094H4.49805V23.3887H14.4922ZM5.45508 6.20312V26.1094H2.02344V6.20312H5.45508ZM15.7675 18.877V18.5625C15.7675 17.4961 15.9224 16.5072 16.2323 15.5957C16.5422 14.6751 16.9889 13.8776 17.5722 13.2031C18.1646 12.5195 18.8847 11.9909 19.7323 11.6172C20.5891 11.2344 21.5553 11.043 22.6308 11.043C23.7154 11.043 24.6816 11.2344 25.5292 11.6172C26.386 11.9909 27.1106 12.5195 27.703 13.2031C28.2955 13.8776 28.7467 14.6751 29.0566 15.5957C29.3665 16.5072 29.5214 17.4961 29.5214 18.5625V18.877C29.5214 19.9434 29.3665 20.9323 29.0566 21.8438C28.7467 22.7552 28.2955 23.5527 27.703 24.2363C27.1106 24.9108 26.3905 25.4395 25.5429 25.8223C24.6952 26.196 23.7336 26.3828 22.6581 26.3828C21.5735 26.3828 20.6028 26.196 19.746 25.8223C18.8984 25.4395 18.1783 24.9108 17.5859 24.2363C16.9934 23.5527 16.5422 22.7552 16.2323 21.8438C15.9224 20.9323 15.7675 19.9434 15.7675 18.877ZM19.0624 18.5625V18.877C19.0624 19.5423 19.1308 20.1712 19.2675 20.7637C19.4042 21.3561 19.6184 21.8757 19.9101 22.3223C20.2017 22.7689 20.5754 23.1198 21.0312 23.375C21.4869 23.6302 22.0292 23.7578 22.6581 23.7578C23.2688 23.7578 23.7974 23.6302 24.2441 23.375C24.6998 23.1198 25.0735 22.7689 25.3652 22.3223C25.6568 21.8757 25.871 21.3561 26.0077 20.7637C26.1536 20.1712 26.2265 19.5423 26.2265 18.877V18.5625C26.2265 17.9062 26.1536 17.2865 26.0077 16.7031C25.871 16.1107 25.6523 15.5866 25.3515 15.1309C25.0598 14.6751 24.6861 14.3197 24.2304 14.0645C23.7838 13.8001 23.2506 13.668 22.6308 13.668C22.011 13.668 21.4732 13.8001 21.0175 14.0645C20.5709 14.3197 20.2017 14.6751 19.9101 15.1309C19.6184 15.5866 19.4042 16.1107 19.2675 16.7031C19.1308 17.2865 19.0624 17.9062 19.0624 18.5625ZM41.3377 11.3164H44.3319V25.6992C44.3319 27.0299 44.0493 28.1602 43.4842 29.0898C42.9191 30.0195 42.1307 30.7259 41.119 31.209C40.1073 31.7012 38.936 31.9473 37.6053 31.9473C37.0402 31.9473 36.4113 31.8652 35.7186 31.7012C35.035 31.5371 34.3696 31.2728 33.7225 30.9082C33.0845 30.5527 32.5513 30.0833 32.1229 29.5L33.6678 27.5586C34.1965 28.1875 34.7798 28.6478 35.4178 28.9395C36.0558 29.2311 36.7258 29.377 37.4276 29.377C38.1841 29.377 38.8267 29.2357 39.3553 28.9531C39.8931 28.6797 40.3078 28.2741 40.5995 27.7363C40.8911 27.1986 41.037 26.5423 41.037 25.7676V14.666L41.3377 11.3164ZM31.2889 18.877V18.5898C31.2889 17.4688 31.4256 16.4479 31.6991 15.5273C31.9725 14.5977 32.3644 13.8001 32.8748 13.1348C33.3853 12.4603 34.0051 11.9453 34.7342 11.5898C35.4634 11.2253 36.2883 11.043 37.2088 11.043C38.1659 11.043 38.9816 11.2161 39.6561 11.5625C40.3397 11.9089 40.9093 12.4056 41.3651 13.0527C41.8208 13.6908 42.1763 14.4564 42.4315 15.3496C42.6958 16.2337 42.8918 17.2181 43.0194 18.3027V19.2188C42.9009 20.276 42.7004 21.2422 42.4178 22.1172C42.1353 22.9922 41.7616 23.7487 41.2967 24.3867C40.8319 25.0247 40.2577 25.5169 39.5741 25.8633C38.8996 26.2096 38.1021 26.3828 37.1815 26.3828C36.2791 26.3828 35.4634 26.196 34.7342 25.8223C34.0142 25.4486 33.3944 24.9245 32.8748 24.25C32.3644 23.5755 31.9725 22.7826 31.6991 21.8711C31.4256 20.9505 31.2889 19.9525 31.2889 18.877ZM34.5838 18.5898V18.877C34.5838 19.5514 34.6476 20.1803 34.7752 20.7637C34.912 21.347 35.117 21.862 35.3905 22.3086C35.673 22.7461 36.0285 23.0924 36.4569 23.3477C36.8944 23.5938 37.4093 23.7168 38.0018 23.7168C38.7765 23.7168 39.41 23.5527 39.9022 23.2246C40.4035 22.8965 40.7863 22.4544 41.0506 21.8984C41.3241 21.3333 41.5155 20.7044 41.6248 20.0117V17.5371C41.5702 16.9993 41.4562 16.498 41.283 16.0332C41.119 15.5684 40.8957 15.1628 40.6131 14.8164C40.3306 14.4609 39.9751 14.1875 39.5467 13.9961C39.1183 13.7956 38.6125 13.6953 38.0291 13.6953C37.4367 13.6953 36.9217 13.8229 36.4842 14.0781C36.0467 14.3333 35.6867 14.6842 35.4041 15.1309C35.1307 15.5775 34.9256 16.097 34.7889 16.6895C34.6522 17.2819 34.5838 17.9154 34.5838 18.5898ZM46.7009 18.877V18.5625C46.7009 17.4961 46.8559 16.5072 47.1658 15.5957C47.4757 14.6751 47.9223 13.8776 48.5056 13.2031C49.0981 12.5195 49.8181 11.9909 50.6658 11.6172C51.5226 11.2344 52.4887 11.043 53.5642 11.043C54.6489 11.043 55.615 11.2344 56.4627 11.6172C57.3194 11.9909 58.044 12.5195 58.6365 13.2031C59.2289 13.8776 59.6801 14.6751 59.99 15.5957C60.2999 16.5072 60.4548 17.4961 60.4548 18.5625V18.877C60.4548 19.9434 60.2999 20.9323 59.99 21.8438C59.6801 22.7552 59.2289 23.5527 58.6365 24.2363C58.044 24.9108 57.324 25.4395 56.4763 25.8223C55.6287 26.196 54.6671 26.3828 53.5916 26.3828C52.5069 26.3828 51.5362 26.196 50.6795 25.8223C49.8318 25.4395 49.1117 24.9108 48.5193 24.2363C47.9269 23.5527 47.4757 22.7552 47.1658 21.8438C46.8559 20.9323 46.7009 19.9434 46.7009 18.877ZM49.9959 18.5625V18.877C49.9959 19.5423 50.0642 20.1712 50.2009 20.7637C50.3377 21.3561 50.5519 21.8757 50.8435 22.3223C51.1352 22.7689 51.5089 23.1198 51.9646 23.375C52.4203 23.6302 52.9627 23.7578 53.5916 23.7578C54.2022 23.7578 54.7309 23.6302 55.1775 23.375C55.6332 23.1198 56.0069 22.7689 56.2986 22.3223C56.5903 21.8757 56.8045 21.3561 56.9412 20.7637C57.087 20.1712 57.1599 19.5423 57.1599 18.877V18.5625C57.1599 17.9062 57.087 17.2865 56.9412 16.7031C56.8045 16.1107 56.5857 15.5866 56.2849 15.1309C55.9933 14.6751 55.6196 14.3197 55.1638 14.0645C54.7172 13.8001 54.184 13.668 53.5642 13.668C52.9444 13.668 52.4067 13.8001 51.9509 14.0645C51.5043 14.3197 51.1352 14.6751 50.8435 15.1309C50.5519 15.5866 50.3377 16.1107 50.2009 16.7031C50.0642 17.2865 49.9959 17.9062 49.9959 18.5625ZM69.5778 11.3164V13.7227H61.238V11.3164H69.5778ZM63.6442 7.69336H66.9391V22.0215C66.9391 22.4772 67.0029 22.8281 67.1305 23.0742C67.2673 23.3112 67.4541 23.4707 67.6911 23.5527C67.9281 23.6348 68.2061 23.6758 68.5251 23.6758C68.7529 23.6758 68.9717 23.6621 69.1813 23.6348C69.391 23.6074 69.5596 23.5801 69.6872 23.5527L69.7009 26.0684C69.4274 26.1504 69.1084 26.2233 68.7438 26.2871C68.3884 26.3509 67.9782 26.3828 67.5134 26.3828C66.7568 26.3828 66.0869 26.2507 65.5036 25.9863C64.9203 25.7129 64.4645 25.2708 64.1364 24.6602C63.8083 24.0495 63.6442 23.2383 63.6442 22.2266V7.69336ZM75.2281 11.3164V26.1094H71.9195V11.3164H75.2281ZM71.7008 7.43359C71.7008 6.93229 71.8648 6.51758 72.193 6.18945C72.5302 5.85221 72.9951 5.68359 73.5875 5.68359C74.1708 5.68359 74.6311 5.85221 74.9684 6.18945C75.3056 6.51758 75.4742 6.93229 75.4742 7.43359C75.4742 7.92578 75.3056 8.33594 74.9684 8.66406C74.6311 8.99219 74.1708 9.15625 73.5875 9.15625C72.9951 9.15625 72.5302 8.99219 72.193 8.66406C71.8648 8.33594 71.7008 7.92578 71.7008 7.43359ZM81.7261 14.1602V31.7969H78.4312V11.3164H81.4663L81.7261 14.1602ZM91.3648 18.5762V18.8633C91.3648 19.9388 91.2372 20.9368 90.982 21.8574C90.7359 22.7689 90.3667 23.5664 89.8745 24.25C89.3915 24.9245 88.7945 25.4486 88.0835 25.8223C87.3726 26.196 86.5523 26.3828 85.6226 26.3828C84.702 26.3828 83.8954 26.2142 83.2027 25.877C82.5191 25.5306 81.9403 25.043 81.4663 24.4141C80.9924 23.7852 80.6096 23.0469 80.3179 22.1992C80.0353 21.3424 79.8348 20.4036 79.7163 19.3828V18.2754C79.8348 17.1908 80.0353 16.2064 80.3179 15.3223C80.6096 14.4382 80.9924 13.6771 81.4663 13.0391C81.9403 12.401 82.5191 11.9089 83.2027 11.5625C83.8863 11.2161 84.6838 11.043 85.5952 11.043C86.5249 11.043 87.3498 11.2253 88.0698 11.5898C88.7899 11.9453 89.396 12.4557 89.8882 13.1211C90.3804 13.7773 90.7495 14.5703 90.9956 15.5C91.2417 16.4206 91.3648 17.446 91.3648 18.5762ZM88.0698 18.8633V18.5762C88.0698 17.8926 88.006 17.2591 87.8784 16.6758C87.7508 16.0833 87.5503 15.5638 87.2769 15.1172C87.0034 14.6706 86.6525 14.3242 86.2241 14.0781C85.8049 13.8229 85.299 13.6953 84.7066 13.6953C84.1232 13.6953 83.6219 13.7956 83.2027 13.9961C82.7834 14.1875 82.4325 14.4564 82.1499 14.8027C81.8674 15.1491 81.6486 15.5547 81.4937 16.0195C81.3387 16.4753 81.2294 16.972 81.1656 17.5098V20.1621C81.2749 20.8184 81.4618 21.4199 81.7261 21.9668C81.9904 22.5137 82.3641 22.9512 82.8472 23.2793C83.3394 23.5983 83.9683 23.7578 84.7339 23.7578C85.3264 23.7578 85.8322 23.6302 86.2515 23.375C86.6708 23.1198 87.0126 22.7689 87.2769 22.3223C87.5503 21.8665 87.7508 21.3424 87.8784 20.75C88.006 20.1576 88.0698 19.5286 88.0698 18.8633ZM93.1186 18.877V18.5625C93.1186 17.4961 93.2735 16.5072 93.5834 15.5957C93.8933 14.6751 94.3399 13.8776 94.9233 13.2031C95.5157 12.5195 96.2358 11.9909 97.0834 11.6172C97.9402 11.2344 98.9064 11.043 99.9819 11.043C101.067 11.043 102.033 11.2344 102.88 11.6172C103.737 11.9909 104.462 12.5195 105.054 13.2031C105.647 13.8776 106.098 14.6751 106.408 15.5957C106.718 16.5072 106.872 17.4961 106.872 18.5625V18.877C106.872 19.9434 106.718 20.9323 106.408 21.8438C106.098 22.7552 105.647 23.5527 105.054 24.2363C104.462 24.9108 103.742 25.4395 102.894 25.8223C102.046 26.196 101.085 26.3828 100.009 26.3828C98.9246 26.3828 97.9539 26.196 97.0971 25.8223C96.2495 25.4395 95.5294 24.9108 94.937 24.2363C94.3445 23.5527 93.8933 22.7552 93.5834 21.8438C93.2735 20.9323 93.1186 19.9434 93.1186 18.877ZM96.4135 18.5625V18.877C96.4135 19.5423 96.4819 20.1712 96.6186 20.7637C96.7553 21.3561 96.9695 21.8757 97.2612 22.3223C97.5528 22.7689 97.9265 23.1198 98.3823 23.375C98.838 23.6302 99.3803 23.7578 100.009 23.7578C100.62 23.7578 101.149 23.6302 101.595 23.375C102.051 23.1198 102.425 22.7689 102.716 22.3223C103.008 21.8757 103.222 21.3561 103.359 20.7637C103.505 20.1712 103.578 19.5423 103.578 18.877V18.5625C103.578 17.9062 103.505 17.2865 103.359 16.7031C103.222 16.1107 103.003 15.5866 102.703 15.1309C102.411 14.6751 102.037 14.3197 101.581 14.0645C101.135 13.8001 100.602 13.668 99.9819 13.668C99.3621 13.668 98.8243 13.8001 98.3686 14.0645C97.922 14.3197 97.5528 14.6751 97.2612 15.1309C96.9695 15.5866 96.7553 16.1107 96.6186 16.7031C96.4819 17.2865 96.4135 17.9062 96.4135 18.5625Z" fill="#323436"/>
<path d="M337 93.1094C337 87.5865 341.477 83.1094 347 83.1094H372.97C378.493 83.1094 382.97 87.5865 382.97 93.1094V114.555C382.97 120.078 378.493 124.555 372.97 124.555H337V93.1094Z" fill="#DB490B"/>
<path fill-rule="evenodd" clip-rule="evenodd" d="M362.042 99.52C361.461 99.968 360.758 100.13 360.072 100.063L357.17 107.565C357.35 107.719 357.521 107.878 357.669 108.069C357.816 108.26 357.926 108.466 358.029 108.678L365.936 107.789C366.042 107.073 366.394 106.408 366.998 105.943C368.266 104.964 370.112 105.239 371.13 106.559C372.148 107.878 371.946 109.733 370.678 110.712C369.41 111.69 367.564 111.415 366.546 110.096C366.399 109.905 366.288 109.699 366.185 109.486L358.278 110.376C358.173 111.091 357.82 111.756 357.217 112.222C355.949 113.201 354.103 112.925 353.085 111.606C352.067 110.287 352.268 108.431 353.537 107.453C354.14 106.987 354.873 106.815 355.592 106.894L358.48 99.3899C358.313 99.2525 358.155 99.0953 358.02 98.9204C357.032 97.6407 357.23 95.8271 358.46 94.878C359.69 93.9288 361.494 94.1978 362.481 95.4776C363.469 96.7573 363.272 98.5709 362.042 99.52Z" fill="white"/>
<path d="M9.67959 129.109H0V88.1094H26.6684V96.2083H9.61368V105.37H25.103V112.774H9.67959V129.109Z" fill="#DB490B"/>
<path d="M180.68 129.11H171V88.1094H197.668V96.7088H180.614V105.871H196.103V113.275H180.68V129.11Z" fill="#DB490B"/>
<path fill-rule="evenodd" clip-rule="evenodd" d="M36.9993 86.6094H44.9993L52.4993 78.1094H42.4993L36.9993 86.6094ZM22 129.109H32.5L34.9993 121.109H47.9993L50.5 129.109H61L46 88.1094H37L22 129.109ZM41.4993 100.109L45.4993 113.609H37.4993L41.4993 100.109Z" fill="#DB490B"/>
<path d="M71.5 109.109C71.5 112.599 71.5 115.609 72.5 117.609C75 123.109 81.5 121.734 83 120.609C84 119.859 86 117.095 86 115.109C86 115.109 94 115.109 95 115.109C95 117.609 94.5 119.609 93 122.609C90.4064 126.456 85.5 129.109 79 129.109C69 129.109 61.5 123.118 61.5 108.609C61.5 96.1094 67.4999 88.1093 79.5 88.1094C88 88.1094 94.5 92.6094 95 102.609C93.0792 102.609 92.5 102.609 91.5 102.609C89.5 102.609 85.5 102.609 85.5 102.609C85.5 100.42 85.0146 98.8777 84 97.6094C82 95.1094 76 95.1094 74 97.6094C72.4383 99.5615 71.5 103.609 71.5 109.109Z" fill="#DB490B"/>
<path d="M110 88.1094H100.5V129.109H110V88.1094Z" fill="#DB490B"/>
<path d="M125.5 88.1094H117H116.716V129.109H143L143 122.109H125.5V88.1094Z" fill="#DB490B"/>
<mask id="path-10-inside-1_528_2523" fill="white">
<path fill-rule="evenodd" clip-rule="evenodd" d="M202 129.109H211.5V114.109H216.5L224 129.109H234L225.5 111.609C225.599 111.56 225.705 111.508 225.818 111.453C227.983 110.395 232.5 108.189 232.5 100.109C232.5 91.6089 224 88.1094 220 88.1095C216 88.1096 202 88.1094 202 88.1094V129.109ZM217 95.1093H211V107.109H217C220.314 107.109 223 104.423 223 101.109C223 97.7956 220.314 95.1093 217 95.1093Z"/>
</mask>
<path fill-rule="evenodd" clip-rule="evenodd" d="M202 129.109H211.5V114.109H216.5L224 129.109H234L225.5 111.609C225.599 111.56 225.705 111.508 225.818 111.453C227.983 110.395 232.5 108.189 232.5 100.109C232.5 91.6089 224 88.1094 220 88.1095C216 88.1096 202 88.1094 202 88.1094V129.109ZM217 95.1093H211V107.109H217C220.314 107.109 223 104.423 223 101.109C223 97.7956 220.314 95.1093 217 95.1093Z" fill="#DB490B"/>
<path d="M211.5 129.109V130.109H212.5V129.109H211.5ZM202 129.109H201V130.109H202V129.109ZM211.5 114.109V113.109H210.5V114.109H211.5ZM216.5 114.109L217.394 113.662L217.118 113.109H216.5V114.109ZM224 129.109L223.106 129.557L223.382 130.109H224V129.109ZM234 129.109V130.109H235.597L234.9 128.672L234 129.109ZM225.5 111.609L225.053 110.715L224.169 111.157L224.6 112.046L225.5 111.609ZM225.818 111.453L226.257 112.351L226.257 112.351L225.818 111.453ZM202 88.1094L202 87.1094L201 87.1094V88.1094H202ZM211 95.1093V94.1093H210V95.1093H211ZM211 107.109H210V108.109H211V107.109ZM211.5 128.109H202V130.109H211.5V128.109ZM210.5 114.109V129.109H212.5V114.109H210.5ZM216.5 113.109H211.5V115.109H216.5V113.109ZM224.894 128.662L217.394 113.662L215.606 114.557L223.106 129.557L224.894 128.662ZM234 128.109H224V130.109H234V128.109ZM224.6 112.046L233.1 129.546L234.9 128.672L226.4 111.172L224.6 112.046ZM225.379 110.554C225.268 110.609 225.157 110.663 225.053 110.715L225.947 112.504C226.041 112.457 226.143 112.407 226.257 112.351L225.379 110.554ZM231.5 100.109C231.5 103.947 230.434 106.285 229.2 107.777C227.949 109.291 226.454 110.029 225.379 110.554L226.257 112.351C227.347 111.819 229.193 110.925 230.742 109.051C232.308 107.156 233.5 104.351 233.5 100.109H231.5ZM220 89.1095C221.774 89.1094 224.693 89.9082 227.156 91.7263C229.584 93.518 231.5 96.2423 231.5 100.109H233.5C233.5 95.476 231.166 92.2003 228.344 90.1171C225.557 88.0604 222.226 87.1094 220 87.1095L220 89.1095ZM202 88.1094C202 89.1094 202 89.1094 202 89.1094C202 89.1094 202 89.1094 202.001 89.1094C202.001 89.1094 202.002 89.1094 202.003 89.1094C202.004 89.1094 202.007 89.1094 202.01 89.1094C202.017 89.1094 202.027 89.1094 202.04 89.1094C202.067 89.1094 202.106 89.1094 202.158 89.1094C202.262 89.1094 202.414 89.1094 202.609 89.1094C203 89.1094 203.562 89.1094 204.25 89.1094C205.625 89.1094 207.5 89.1095 209.5 89.1095C213.5 89.1095 218 89.1095 220 89.1095L220 87.1095C218 87.1095 213.5 87.1095 209.5 87.1095C207.5 87.1095 205.625 87.1094 204.25 87.1094C203.563 87.1094 203 87.1094 202.609 87.1094C202.414 87.1094 202.262 87.1094 202.158 87.1094C202.106 87.1094 202.067 87.1094 202.04 87.1094C202.027 87.1094 202.017 87.1094 202.01 87.1094C202.007 87.1094 202.004 87.1094 202.003 87.1094C202.002 87.1094 202.001 87.1094 202.001 87.1094C202 87.1094 202 87.1094 202 87.1094C202 87.1094 202 87.1094 202 88.1094ZM203 129.109V88.1094H201V129.109H203ZM211 96.1093H217V94.1093H211V96.1093ZM212 107.109V95.1093H210V107.109H212ZM217 106.109H211V108.109H217V106.109ZM222 101.109C222 103.871 219.761 106.109 217 106.109V108.109C220.866 108.109 224 104.975 224 101.109H222ZM217 96.1093C219.761 96.1093 222 98.3479 222 101.109H224C224 97.2434 220.866 94.1093 217 94.1093V96.1093Z" fill="#DB490B" mask="url(#path-10-inside-1_528_2523)"/>
<path d="M238 129.109V88.1094H265.5V96.1093H248V104.609H263V111.609H248V121.609H265.5V129.109H238Z" fill="#DB490B"/>
<path d="M270 129.109V88.1094H297.5V96.1093H280V104.609H295V111.609H280V121.609H297.5V129.109H270Z" fill="#DB490B"/>
<path fill-rule="evenodd" clip-rule="evenodd" d="M161.417 106.213C160.7 106.929 160.342 107.853 160.295 108.787L149.66 111.596C149.49 111.332 149.311 111.078 149.085 110.851C148.859 110.625 148.604 110.446 148.34 110.276L151.112 99.7545C152.093 99.7167 153.054 99.3396 153.799 98.5948C155.364 97.0297 155.364 94.503 153.799 92.9379C152.234 91.3729 149.707 91.3729 148.142 92.9379C146.577 94.503 146.577 97.0297 148.142 98.5948C148.368 98.8211 148.623 99.0002 148.887 99.1699L146.115 109.692C145.135 109.729 144.173 110.106 143.428 110.851C141.863 112.416 141.863 114.943 143.428 116.508C144.993 118.073 147.52 118.073 149.085 116.508C149.83 115.763 150.207 114.802 150.245 113.821L160.879 111.03C161.03 111.276 161.209 111.511 161.417 111.719C162.935 113.237 165.405 113.237 166.923 111.719C168.441 110.201 168.441 107.731 166.923 106.213C165.405 104.695 162.935 104.695 161.417 106.213Z" fill="#424242"/>
<path d="M813.97 93.1094C813.97 87.5865 818.447 83.1094 823.97 83.1094H849.94C855.463 83.1094 859.94 87.5865 859.94 93.1094V114.555C859.94 120.078 855.463 124.555 849.94 124.555H813.97V93.1094Z" fill="#020202"/>
<path fill-rule="evenodd" clip-rule="evenodd" d="M839.011 99.52C838.431 99.968 837.727 100.13 837.042 100.063L834.14 107.565C834.319 107.719 834.491 107.878 834.638 108.069C834.785 108.26 834.896 108.466 834.999 108.678L842.906 107.789C843.012 107.073 843.364 106.408 843.967 105.943C845.236 104.964 847.081 105.239 848.099 106.559C849.118 107.878 848.916 109.733 847.648 110.712C846.38 111.69 844.534 111.415 843.516 110.096C843.368 109.905 843.258 109.699 843.155 109.486L835.248 110.376C835.142 111.091 834.79 111.756 834.186 112.222C832.918 113.201 831.073 112.925 830.054 111.606C829.036 110.287 829.238 108.431 830.506 107.453C831.11 106.987 831.842 106.815 832.562 106.894L835.449 99.3899C835.282 99.2525 835.124 99.0953 834.99 98.9204C834.002 97.6407 834.199 95.8271 835.429 94.878C836.659 93.9288 838.464 94.1978 839.451 95.4776C840.439 96.7573 840.241 98.5709 839.011 99.52Z" fill="white"/>
<path d="M486.649 129.109H476.97V88.1094H503.638V96.2083H486.584V105.37H502.073V112.774H486.649V129.109Z" fill="#020202"/>
<path d="M657.649 129.11H647.97V88.1094H674.638V96.7088H657.584V105.871H673.073V113.275H657.649V129.11Z" fill="#020202"/>
<path fill-rule="evenodd" clip-rule="evenodd" d="M513.969 86.6094H521.969L529.469 78.1094H519.469L513.969 86.6094ZM498.97 129.109H509.47L511.969 121.109H524.969L527.47 129.109H537.97L522.97 88.1094H513.97L498.97 129.109ZM518.469 100.109L522.469 113.609H514.469L518.469 100.109Z" fill="#020202"/>
<path d="M548.47 109.109C548.47 112.599 548.47 115.609 549.47 117.609C551.97 123.109 558.47 121.734 559.97 120.609C560.97 119.859 562.97 117.095 562.97 115.109C562.97 115.109 570.97 115.109 571.97 115.109C571.97 117.609 571.47 119.609 569.97 122.609C567.376 126.456 562.47 129.109 555.97 129.109C545.97 129.109 538.47 123.118 538.47 108.609C538.47 96.1094 544.47 88.1093 556.47 88.1094C564.97 88.1094 571.47 92.6094 571.97 102.609C570.049 102.609 569.47 102.609 568.47 102.609C566.47 102.609 562.47 102.609 562.47 102.609C562.47 100.42 561.984 98.8777 560.97 97.6094C558.97 95.1094 552.97 95.1094 550.97 97.6094C549.408 99.5615 548.47 103.609 548.47 109.109Z" fill="#020202"/>
<path d="M586.97 88.1094H577.47V129.109H586.97V88.1094Z" fill="#020202"/>
<path d="M602.47 88.1094H593.97H593.686V129.109H619.97L619.97 122.109H602.47V88.1094Z" fill="#020202"/>
<mask id="path-23-inside-2_528_2523" fill="white">
<path fill-rule="evenodd" clip-rule="evenodd" d="M678.97 129.109H688.47V114.109H693.47L700.97 129.109H710.97L702.47 111.609C702.569 111.56 702.675 111.508 702.788 111.453C704.953 110.395 709.47 108.189 709.47 100.109C709.47 91.6089 700.97 88.1094 696.97 88.1095C692.97 88.1096 678.97 88.1094 678.97 88.1094V129.109ZM693.97 95.1093H687.97V107.109H693.97C697.284 107.109 699.97 104.423 699.97 101.109C699.97 97.7956 697.284 95.1093 693.97 95.1093Z"/>
</mask>
<path fill-rule="evenodd" clip-rule="evenodd" d="M678.97 129.109H688.47V114.109H693.47L700.97 129.109H710.97L702.47 111.609C702.569 111.56 702.675 111.508 702.788 111.453C704.953 110.395 709.47 108.189 709.47 100.109C709.47 91.6089 700.97 88.1094 696.97 88.1095C692.97 88.1096 678.97 88.1094 678.97 88.1094V129.109ZM693.97 95.1093H687.97V107.109H693.97C697.284 107.109 699.97 104.423 699.97 101.109C699.97 97.7956 697.284 95.1093 693.97 95.1093Z" fill="#020202"/>
<path d="M688.47 129.109V130.109H689.47V129.109H688.47ZM678.97 129.109H677.97V130.109H678.97V129.109ZM688.47 114.109V113.109H687.47V114.109H688.47ZM693.47 114.109L694.364 113.662L694.088 113.109H693.47V114.109ZM700.97 129.109L700.075 129.557L700.352 130.109H700.97V129.109ZM710.97 129.109V130.109H712.567L711.869 128.672L710.97 129.109ZM702.47 111.609L702.023 110.715L701.138 111.157L701.57 112.046L702.47 111.609ZM702.788 111.453L703.227 112.351L703.227 112.351L702.788 111.453ZM678.97 88.1094L678.97 87.1094L677.97 87.1094V88.1094H678.97ZM687.97 95.1093V94.1093H686.97V95.1093H687.97ZM687.97 107.109H686.97V108.109H687.97V107.109ZM688.47 128.109H678.97V130.109H688.47V128.109ZM687.47 114.109V129.109H689.47V114.109H687.47ZM693.47 113.109H688.47V115.109H693.47V113.109ZM701.864 128.662L694.364 113.662L692.575 114.557L700.075 129.557L701.864 128.662ZM710.97 128.109H700.97V130.109H710.97V128.109ZM701.57 112.046L710.07 129.546L711.869 128.672L703.369 111.172L701.57 112.046ZM702.349 110.554C702.237 110.609 702.127 110.663 702.023 110.715L702.917 112.504C703.011 112.457 703.113 112.407 703.227 112.351L702.349 110.554ZM708.47 100.109C708.47 103.947 707.403 106.285 706.17 107.777C704.919 109.291 703.424 110.029 702.349 110.554L703.227 112.351C704.317 111.819 706.163 110.925 707.712 109.051C709.278 107.156 710.47 104.351 710.47 100.109H708.47ZM696.97 89.1095C698.744 89.1094 701.663 89.9082 704.126 91.7263C706.554 93.518 708.47 96.2423 708.47 100.109H710.47C710.47 95.476 708.136 92.2003 705.314 90.1171C702.527 88.0604 699.196 87.1094 696.97 87.1095L696.97 89.1095ZM678.97 88.1094C678.97 89.1094 678.97 89.1094 678.97 89.1094C678.97 89.1094 678.97 89.1094 678.97 89.1094C678.971 89.1094 678.972 89.1094 678.972 89.1094C678.974 89.1094 678.977 89.1094 678.98 89.1094C678.987 89.1094 678.997 89.1094 679.01 89.1094C679.037 89.1094 679.076 89.1094 679.128 89.1094C679.232 89.1094 679.384 89.1094 679.579 89.1094C679.97 89.1094 680.532 89.1094 681.22 89.1094C682.595 89.1094 684.47 89.1095 686.47 89.1095C690.47 89.1095 694.97 89.1095 696.97 89.1095L696.97 87.1095C694.97 87.1095 690.47 87.1095 686.47 87.1095C684.47 87.1095 682.595 87.1094 681.22 87.1094C680.532 87.1094 679.97 87.1094 679.579 87.1094C679.384 87.1094 679.232 87.1094 679.128 87.1094C679.076 87.1094 679.037 87.1094 679.01 87.1094C678.997 87.1094 678.987 87.1094 678.98 87.1094C678.977 87.1094 678.974 87.1094 678.972 87.1094C678.972 87.1094 678.971 87.1094 678.971 87.1094C678.97 87.1094 678.97 87.1094 678.97 87.1094C678.97 87.1094 678.97 87.1094 678.97 88.1094ZM679.97 129.109V88.1094H677.97V129.109H679.97ZM687.97 96.1093H693.97V94.1093H687.97V96.1093ZM688.97 107.109V95.1093H686.97V107.109H688.97ZM693.97 106.109H687.97V108.109H693.97V106.109ZM698.97 101.109C698.97 103.871 696.731 106.109 693.97 106.109V108.109C697.836 108.109 700.97 104.975 700.97 101.109H698.97ZM693.97 96.1093C696.731 96.1093 698.97 98.3479 698.97 101.109H700.97C700.97 97.2434 697.836 94.1093 693.97 94.1093V96.1093Z" fill="#020202" mask="url(#path-23-inside-2_528_2523)"/>
<path d="M714.97 129.109V88.1094H742.47V96.1093H724.97V104.609H739.97V111.609H724.97V121.609H742.47V129.109H714.97Z" fill="#020202"/>
<path d="M746.97 129.109V88.1094H774.47V96.1093H756.97V104.609H771.97V111.609H756.97V121.609H774.47V129.109H746.97Z" fill="#020202"/>
<path fill-rule="evenodd" clip-rule="evenodd" d="M638.387 106.213C637.67 106.929 637.312 107.853 637.265 108.787L626.63 111.596C626.46 111.332 626.281 111.078 626.055 110.851C625.829 110.625 625.574 110.446 625.31 110.276L628.082 99.7545C629.062 99.7167 630.024 99.3396 630.769 98.5948C632.334 97.0297 632.334 94.503 630.769 92.9379C629.204 91.3729 626.677 91.3729 625.112 92.9379C623.547 94.503 623.547 97.0297 625.112 98.5948C625.338 98.8211 625.593 99.0002 625.857 99.1699L623.085 109.692C622.104 109.729 621.143 110.106 620.398 110.851C618.833 112.416 618.833 114.943 620.398 116.508C621.963 118.073 624.49 118.073 626.055 116.508C626.8 115.763 627.177 114.802 627.214 113.821L637.849 111.03C638 111.276 638.179 111.511 638.387 111.719C639.905 113.237 642.375 113.237 643.893 111.719C645.411 110.201 645.411 107.731 643.893 106.213C642.375 104.695 639.905 104.695 638.387 106.213Z" fill="#424242"/>
<path d="M337 164.109C337 158.587 341.477 154.109 347 154.109H372.97C378.493 154.109 382.97 158.587 382.97 164.109V185.555C382.97 191.078 378.493 195.555 372.97 195.555H337V164.109Z" fill="#424242"/>
<path fill-rule="evenodd" clip-rule="evenodd" d="M362.042 170.52C361.461 170.968 360.758 171.13 360.072 171.063L357.17 178.565C357.35 178.719 357.521 178.878 357.669 179.069C357.816 179.26 357.926 179.466 358.029 179.678L365.936 178.789C366.042 178.073 366.394 177.408 366.998 176.943C368.266 175.964 370.112 176.239 371.13 177.559C372.148 178.878 371.946 180.733 370.678 181.712C369.41 182.69 367.564 182.415 366.546 181.096C366.399 180.905 366.288 180.699 366.185 180.486L358.278 181.376C358.173 182.091 357.82 182.756 357.217 183.222C355.949 184.201 354.103 183.925 353.085 182.606C352.067 181.287 352.268 179.431 353.537 178.453C354.14 177.987 354.873 177.815 355.592 177.894L358.48 170.39C358.313 170.252 358.155 170.095 358.02 169.92C357.032 168.641 357.23 166.827 358.46 165.878C359.69 164.929 361.494 165.198 362.481 166.478C363.469 167.757 363.272 169.571 362.042 170.52Z" fill="white"/>
<path d="M9.67959 200.109H0V159.109H26.6684V167.208H9.61368V176.37H25.103V183.774H9.67959V200.109Z" fill="#424242"/>
<path d="M180.68 200.11H171V159.109H197.668V167.709H180.614V176.871H196.103V184.275H180.68V200.11Z" fill="#424242"/>
<path fill-rule="evenodd" clip-rule="evenodd" d="M36.9993 157.609H44.9993L52.4993 149.109H42.4993L36.9993 157.609ZM22 200.109H32.5L34.9993 192.109H47.9993L50.5 200.109H61L46 159.109H37L22 200.109ZM41.4993 171.109L45.4993 184.609H37.4993L41.4993 171.109Z" fill="#424242"/>
<path d="M71.5 180.109C71.5 183.599 71.5 186.609 72.5 188.609C75 194.109 81.5 192.734 83 191.609C84 190.859 86 188.095 86 186.109C86 186.109 94 186.109 95 186.109C95 188.609 94.5 190.609 93 193.609C90.4064 197.456 85.5 200.109 79 200.109C69 200.109 61.5 194.118 61.5 179.609C61.5 167.109 67.4999 159.109 79.5 159.109C88 159.109 94.5 163.609 95 173.609C93.0792 173.609 92.5 173.609 91.5 173.609C89.5 173.609 85.5 173.609 85.5 173.609C85.5 171.42 85.0146 169.878 84 168.609C82 166.109 76 166.109 74 168.609C72.4383 170.562 71.5 174.609 71.5 180.109Z" fill="#424242"/>
<path d="M110 159.109H100.5V200.109H110V159.109Z" fill="#424242"/>
<path d="M125.5 159.109H117H116.716V200.109H143L143 193.109H125.5V159.109Z" fill="#424242"/>
<mask id="path-36-inside-3_528_2523" fill="white">
<path fill-rule="evenodd" clip-rule="evenodd" d="M202 200.109H211.5V185.109H216.5L224 200.109H234L225.5 182.609C225.599 182.56 225.705 182.508 225.818 182.453C227.983 181.395 232.5 179.189 232.5 171.109C232.5 162.609 224 159.109 220 159.109C216 159.11 202 159.109 202 159.109V200.109ZM217 166.109H211V178.109H217C220.314 178.109 223 175.423 223 172.109C223 168.796 220.314 166.109 217 166.109Z"/>
</mask>
<path fill-rule="evenodd" clip-rule="evenodd" d="M202 200.109H211.5V185.109H216.5L224 200.109H234L225.5 182.609C225.599 182.56 225.705 182.508 225.818 182.453C227.983 181.395 232.5 179.189 232.5 171.109C232.5 162.609 224 159.109 220 159.109C216 159.11 202 159.109 202 159.109V200.109ZM217 166.109H211V178.109H217C220.314 178.109 223 175.423 223 172.109C223 168.796 220.314 166.109 217 166.109Z" fill="#424242"/>
<path d="M211.5 200.109V201.109H212.5V200.109H211.5ZM202 200.109H201V201.109H202V200.109ZM211.5 185.109V184.109H210.5V185.109H211.5ZM216.5 185.109L217.394 184.662L217.118 184.109H216.5V185.109ZM224 200.109L223.106 200.557L223.382 201.109H224V200.109ZM234 200.109V201.109H235.597L234.9 199.672L234 200.109ZM225.5 182.609L225.053 181.715L224.169 182.157L224.6 183.046L225.5 182.609ZM225.818 182.453L226.257 183.351L226.257 183.351L225.818 182.453ZM202 159.109L202 158.109L201 158.109V159.109H202ZM211 166.109V165.109H210V166.109H211ZM211 178.109H210V179.109H211V178.109ZM211.5 199.109H202V201.109H211.5V199.109ZM210.5 185.109V200.109H212.5V185.109H210.5ZM216.5 184.109H211.5V186.109H216.5V184.109ZM224.894 199.662L217.394 184.662L215.606 185.557L223.106 200.557L224.894 199.662ZM234 199.109H224V201.109H234V199.109ZM224.6 183.046L233.1 200.546L234.9 199.672L226.4 182.172L224.6 183.046ZM225.379 181.554C225.268 181.609 225.157 181.663 225.053 181.715L225.947 183.504C226.041 183.457 226.143 183.407 226.257 183.351L225.379 181.554ZM231.5 171.109C231.5 174.947 230.434 177.285 229.2 178.777C227.949 180.291 226.454 181.029 225.379 181.554L226.257 183.351C227.347 182.819 229.193 181.925 230.742 180.051C232.308 178.156 233.5 175.351 233.5 171.109H231.5ZM220 160.109C221.774 160.109 224.693 160.908 227.156 162.726C229.584 164.518 231.5 167.242 231.5 171.109H233.5C233.5 166.476 231.166 163.2 228.344 161.117C225.557 159.06 222.226 158.109 220 158.109L220 160.109ZM202 159.109C202 160.109 202 160.109 202 160.109C202 160.109 202 160.109 202.001 160.109C202.001 160.109 202.002 160.109 202.003 160.109C202.004 160.109 202.007 160.109 202.01 160.109C202.017 160.109 202.027 160.109 202.04 160.109C202.067 160.109 202.106 160.109 202.158 160.109C202.262 160.109 202.414 160.109 202.609 160.109C203 160.109 203.562 160.109 204.25 160.109C205.625 160.109 207.5 160.109 209.5 160.109C213.5 160.11 218 160.11 220 160.109L220 158.109C218 158.11 213.5 158.11 209.5 158.109C207.5 158.109 205.625 158.109 204.25 158.109C203.563 158.109 203 158.109 202.609 158.109C202.414 158.109 202.262 158.109 202.158 158.109C202.106 158.109 202.067 158.109 202.04 158.109C202.027 158.109 202.017 158.109 202.01 158.109C202.007 158.109 202.004 158.109 202.003 158.109C202.002 158.109 202.001 158.109 202.001 158.109C202 158.109 202 158.109 202 158.109C202 158.109 202 158.109 202 159.109ZM203 200.109V159.109H201V200.109H203ZM211 167.109H217V165.109H211V167.109ZM212 178.109V166.109H210V178.109H212ZM217 177.109H211V179.109H217V177.109ZM222 172.109C222 174.871 219.761 177.109 217 177.109V179.109C220.866 179.109 224 175.975 224 172.109H222ZM217 167.109C219.761 167.109 222 169.348 222 172.109H224C224 168.243 220.866 165.109 217 165.109V167.109Z" fill="#424242" mask="url(#path-36-inside-3_528_2523)"/>
<path d="M238 200.109V159.109H265.5V167.109H248V175.609H263V182.609H248V192.609H265.5V200.109H238Z" fill="#424242"/>
<path d="M270 200.109V159.109H297.5V167.109H280V175.609H295V182.609H280V192.609H297.5V200.109H270Z" fill="#424242"/>
<path fill-rule="evenodd" clip-rule="evenodd" d="M161.417 177.213C160.7 177.929 160.342 178.853 160.295 179.787L149.66 182.596C149.49 182.332 149.311 182.078 149.085 181.851C148.859 181.625 148.604 181.446 148.34 181.276L151.112 170.754C152.093 170.717 153.054 170.34 153.799 169.595C155.364 168.03 155.364 165.503 153.799 163.938C152.234 162.373 149.707 162.373 148.142 163.938C146.577 165.503 146.577 168.03 148.142 169.595C148.368 169.821 148.623 170 148.887 170.17L146.115 180.692C145.135 180.729 144.173 181.106 143.428 181.851C141.863 183.416 141.863 185.943 143.428 187.508C144.993 189.073 147.52 189.073 149.085 187.508C149.83 186.763 150.207 185.802 150.245 184.821L160.879 182.03C161.03 182.276 161.209 182.511 161.417 182.719C162.935 184.237 165.405 184.237 166.923 182.719C168.441 181.201 168.441 178.731 166.923 177.213C165.405 175.695 162.935 175.695 161.417 177.213Z" fill="#424242"/>
<g filter="url(#filter0_d_528_2523)">
<path d="M813.97 164.109C813.97 158.587 818.447 154.109 823.97 154.109H849.94C855.463 154.109 859.94 158.587 859.94 164.109V185.555C859.94 191.078 855.463 195.555 849.94 195.555H813.97V164.109Z" stroke="#E0E0E0" shape-rendering="crispEdges"/>
<path fill-rule="evenodd" clip-rule="evenodd" d="M839.011 170.52C838.431 170.968 837.727 171.13 837.042 171.063L834.14 178.565C834.319 178.719 834.491 178.878 834.638 179.069C834.785 179.26 834.896 179.466 834.999 179.678L842.906 178.789C843.012 178.073 843.364 177.408 843.967 176.943C845.236 175.964 847.081 176.239 848.099 177.559C849.118 178.878 848.916 180.733 847.648 181.712C846.38 182.69 844.534 182.415 843.516 181.096C843.368 180.905 843.258 180.699 843.155 180.486L835.248 181.376C835.142 182.091 834.79 182.756 834.186 183.222C832.918 184.201 831.073 183.925 830.054 182.606C829.036 181.287 829.238 179.431 830.506 178.453C831.11 177.987 831.842 177.815 832.562 177.894L835.449 170.39C835.282 170.252 835.124 170.095 834.99 169.92C834.002 168.641 834.199 166.827 835.429 165.878C836.659 164.929 838.464 165.198 839.451 166.478C840.439 167.757 840.241 169.571 839.011 170.52Z" fill="#F5F5F5"/>
</g>
<g filter="url(#filter1_d_528_2523)">
<path d="M486.649 200.109H476.97V159.109H503.638V167.208H486.584V176.37H502.073V183.774H486.649V200.109Z" fill="white"/>
<path d="M657.649 200.11H647.97V159.109H674.638V167.709H657.584V176.871H673.073V184.275H657.649V200.11Z" fill="white"/>
<path fill-rule="evenodd" clip-rule="evenodd" d="M513.969 157.609H521.969L529.469 149.109H519.469L513.969 157.609ZM498.97 200.109H509.47L511.969 192.109H524.969L527.47 200.109H537.97L522.97 159.109H513.97L498.97 200.109ZM518.469 171.109L522.469 184.609H514.469L518.469 171.109Z" fill="white"/>
<path d="M548.47 180.109C548.47 183.599 548.47 186.609 549.47 188.609C551.97 194.109 558.47 192.734 559.97 191.609C560.97 190.859 562.97 188.095 562.97 186.109C562.97 186.109 570.97 186.109 571.97 186.109C571.97 188.609 571.47 190.609 569.97 193.609C567.376 197.456 562.47 200.109 555.97 200.109C545.97 200.109 538.47 194.118 538.47 179.609C538.47 167.109 544.47 159.109 556.47 159.109C564.97 159.109 571.47 163.609 571.97 173.609C570.049 173.609 569.47 173.609 568.47 173.609C566.47 173.609 562.47 173.609 562.47 173.609C562.47 171.42 561.984 169.878 560.97 168.609C558.97 166.109 552.97 166.109 550.97 168.609C549.408 170.562 548.47 174.609 548.47 180.109Z" fill="white"/>
<path d="M586.97 159.109H577.47V200.109H586.97V159.109Z" fill="white"/>
<path d="M602.47 159.109H593.97H593.686V200.109H619.97L619.97 193.109H602.47V159.109Z" fill="white"/>
<mask id="path-49-inside-4_528_2523" fill="white">
<path fill-rule="evenodd" clip-rule="evenodd" d="M678.97 200.109H688.47V185.109H693.47L700.97 200.109H710.97L702.47 182.609C702.569 182.56 702.675 182.508 702.788 182.453C704.953 181.395 709.47 179.189 709.47 171.109C709.47 162.609 700.97 159.109 696.97 159.109C692.97 159.11 678.97 159.109 678.97 159.109V200.109ZM693.97 166.109H687.97V178.109H693.97C697.284 178.109 699.97 175.423 699.97 172.109C699.97 168.796 697.284 166.109 693.97 166.109Z"/>
</mask>
<path fill-rule="evenodd" clip-rule="evenodd" d="M678.97 200.109H688.47V185.109H693.47L700.97 200.109H710.97L702.47 182.609C702.569 182.56 702.675 182.508 702.788 182.453C704.953 181.395 709.47 179.189 709.47 171.109C709.47 162.609 700.97 159.109 696.97 159.109C692.97 159.11 678.97 159.109 678.97 159.109V200.109ZM693.97 166.109H687.97V178.109H693.97C697.284 178.109 699.97 175.423 699.97 172.109C699.97 168.796 697.284 166.109 693.97 166.109Z" fill="white"/>
<path d="M688.47 200.109V201.109H689.47V200.109H688.47ZM678.97 200.109H677.97V201.109H678.97V200.109ZM688.47 185.109V184.109H687.47V185.109H688.47ZM693.47 185.109L694.364 184.662L694.088 184.109H693.47V185.109ZM700.97 200.109L700.075 200.557L700.352 201.109H700.97V200.109ZM710.97 200.109V201.109H712.567L711.869 199.672L710.97 200.109ZM702.47 182.609L702.023 181.715L701.138 182.157L701.57 183.046L702.47 182.609ZM702.788 182.453L703.227 183.351L703.227 183.351L702.788 182.453ZM678.97 159.109L678.97 158.109L677.97 158.109V159.109H678.97ZM687.97 166.109V165.109H686.97V166.109H687.97ZM687.97 178.109H686.97V179.109H687.97V178.109ZM688.47 199.109H678.97V201.109H688.47V199.109ZM687.47 185.109V200.109H689.47V185.109H687.47ZM693.47 184.109H688.47V186.109H693.47V184.109ZM701.864 199.662L694.364 184.662L692.575 185.557L700.075 200.557L701.864 199.662ZM710.97 199.109H700.97V201.109H710.97V199.109ZM701.57 183.046L710.07 200.546L711.869 199.672L703.369 182.172L701.57 183.046ZM702.349 181.554C702.237 181.609 702.127 181.663 702.023 181.715L702.917 183.504C703.011 183.457 703.113 183.407 703.227 183.351L702.349 181.554ZM708.47 171.109C708.47 174.947 707.403 177.285 706.17 178.777C704.919 180.291 703.424 181.029 702.349 181.554L703.227 183.351C704.317 182.819 706.163 181.925 707.712 180.051C709.278 178.156 710.47 175.351 710.47 171.109H708.47ZM696.97 160.109C698.744 160.109 701.663 160.908 704.126 162.726C706.554 164.518 708.47 167.242 708.47 171.109H710.47C710.47 166.476 708.136 163.2 705.314 161.117C702.527 159.06 699.196 158.109 696.97 158.109L696.97 160.109ZM678.97 159.109C678.97 160.109 678.97 160.109 678.97 160.109C678.97 160.109 678.97 160.109 678.97 160.109C678.971 160.109 678.972 160.109 678.972 160.109C678.974 160.109 678.977 160.109 678.98 160.109C678.987 160.109 678.997 160.109 679.01 160.109C679.037 160.109 679.076 160.109 679.128 160.109C679.232 160.109 679.384 160.109 679.579 160.109C679.97 160.109 680.532 160.109 681.22 160.109C682.595 160.109 684.47 160.109 686.47 160.109C690.47 160.11 694.97 160.11 696.97 160.109L696.97 158.109C694.97 158.11 690.47 158.11 686.47 158.109C684.47 158.109 682.595 158.109 681.22 158.109C680.532 158.109 679.97 158.109 679.579 158.109C679.384 158.109 679.232 158.109 679.128 158.109C679.076 158.109 679.037 158.109 679.01 158.109C678.997 158.109 678.987 158.109 678.98 158.109C678.977 158.109 678.974 158.109 678.972 158.109C678.972 158.109 678.971 158.109 678.971 158.109C678.97 158.109 678.97 158.109 678.97 158.109C678.97 158.109 678.97 158.109 678.97 159.109ZM679.97 200.109V159.109H677.97V200.109H679.97ZM687.97 167.109H693.97V165.109H687.97V167.109ZM688.97 178.109V166.109H686.97V178.109H688.97ZM693.97 177.109H687.97V179.109H693.97V177.109ZM698.97 172.109C698.97 174.871 696.731 177.109 693.97 177.109V179.109C697.836 179.109 700.97 175.975 700.97 172.109H698.97ZM693.97 167.109C696.731 167.109 698.97 169.348 698.97 172.109H700.97C700.97 168.243 697.836 165.109 693.97 165.109V167.109Z" fill="white" mask="url(#path-49-inside-4_528_2523)"/>
<path d="M714.97 200.109V159.109H742.47V167.109H724.97V175.609H739.97V182.609H724.97V192.609H742.47V200.109H714.97Z" fill="white"/>
<path d="M746.97 200.109V159.109H774.47V167.109H756.97V175.609H771.97V182.609H756.97V192.609H774.47V200.109H746.97Z" fill="white"/>
<path fill-rule="evenodd" clip-rule="evenodd" d="M638.387 177.213C637.67 177.929 637.312 178.853 637.265 179.787L626.63 182.596C626.46 182.332 626.281 182.078 626.055 181.851C625.829 181.625 625.574 181.446 625.31 181.276L628.082 170.754C629.062 170.717 630.024 170.34 630.769 169.595C632.334 168.03 632.334 165.503 630.769 163.938C629.204 162.373 626.677 162.373 625.112 163.938C623.547 165.503 623.547 168.03 625.112 169.595C625.338 169.821 625.593 170 625.857 170.17L623.085 180.692C622.104 180.729 621.143 181.106 620.398 181.851C618.833 183.416 618.833 185.943 620.398 187.508C621.963 189.073 624.49 189.073 626.055 187.508C626.8 186.763 627.177 185.802 627.214 184.821L637.849 182.03C638 182.276 638.179 182.511 638.387 182.719C639.905 184.237 642.375 184.237 643.893 182.719C645.411 181.201 645.411 178.731 643.893 177.213C642.375 175.695 639.905 175.695 638.387 177.213Z" fill="white"/>
</g>
<defs>
<filter id="filter0_d_528_2523" x="813.47" y="153.609" width="50.9698" height="45.4453" filterUnits="userSpaceOnUse" color-interpolation-filters="sRGB">
<feFlood flood-opacity="0" result="BackgroundImageFix"/>
<feColorMatrix in="SourceAlpha" type="matrix" values="0 0 0 0 0 0 0 0 0 0 0 0 0 0 0 0 0 0 127 0" result="hardAlpha"/>
<feOffset dx="3" dy="2"/>
<feGaussianBlur stdDeviation="0.5"/>
<feComposite in2="hardAlpha" operator="out"/>
<feColorMatrix type="matrix" values="0 0 0 0 0 0 0 0 0 0 0 0 0 0 0 0 0 0 0.25 0"/>
<feBlend mode="normal" in2="BackgroundImageFix" result="effect1_dropShadow_528_2523"/>
<feBlend mode="normal" in="SourceGraphic" in2="effect1_dropShadow_528_2523" result="shape"/>
</filter>
<filter id="filter1_d_528_2523" x="473.97" y="147.109" width="309.5" height="63" filterUnits="userSpaceOnUse" color-interpolation-filters="sRGB">
<feFlood flood-opacity="0" result="BackgroundImageFix"/>
<feColorMatrix in="SourceAlpha" type="matrix" values="0 0 0 0 0 0 0 0 0 0 0 0 0 0 0 0 0 0 127 0" result="hardAlpha"/>
<feOffset dx="3" dy="4"/>
<feGaussianBlur stdDeviation="3"/>
<feComposite in2="hardAlpha" operator="out"/>
<feColorMatrix type="matrix" values="0 0 0 0 0 0 0 0 0 0 0 0 0 0 0 0 0 0 0.5 0"/>
<feBlend mode="normal" in2="BackgroundImageFix" result="effect1_dropShadow_528_2523"/>
<feBlend mode="normal" in="SourceGraphic" in2="effect1_dropShadow_528_2523" result="shape"/>
</filter>
</defs>
</svg>
