<svg width="268" height="276" viewBox="0 0 268 276" fill="none" xmlns="http://www.w3.org/2000/svg">
<path fill-rule="evenodd" clip-rule="evenodd" d="M21 111C21 57.9807 63.9807 15 117 15C170.019 15 213 57.9807 213 111C213 164.019 170.019 207 117 207C63.9807 207 21 164.019 21 111ZM117 21C67.2944 21 27 61.2944 27 111C27 160.706 67.2944 201 117 201C166.706 201 207 160.706 207 111C207 61.2944 166.706 21 117 21Z" fill="#D36FB1"/>
<path d="M225.041 162.516L151.045 273.516C129.258 260.934 116.258 232.934 116.259 201.516C116.259 198.897 116.253 196.308 116.243 193.75C84.6021 206.58 56.6932 214.683 50.0415 201.516C43.3837 188.337 75.0668 167.242 115.257 144.437C114.609 127.466 113.658 112.289 112.444 98.7645C67.9757 122.815 27.1739 146.705 15.0431 151.516C-23.8735 166.948 89.8754 -152.586 112.444 98.7645C174.285 65.3175 243.216 31.5591 251.99 48.3703C262.53 68.5666 178.396 108.611 115.257 144.437C115.83 159.44 116.168 175.845 116.243 193.75C166.024 173.565 225.041 141.678 225.041 162.516Z" fill="#A4CACF"/>
<path d="M189 60.5C187.317 61.3416 177 66 177 66L199.5 97.5L212 90L224 82C221.667 78 216 70.4 216 70C216 69.6 207.167 59.3333 202.5 54.5C202.5 54.5 190.683 59.6584 189 60.5Z" fill="#A4CACF"/>
<path fill-rule="evenodd" clip-rule="evenodd" d="M177 66L199.5 97.5L212 90L224 82C222.688 79.7515 220.324 76.3656 218.504 73.7603C217.087 71.7309 216 70.1752 216 70C216 69.6 207.167 59.3333 202.5 54.5C202.5 54.5 190.683 59.6584 189 60.5C187.626 61.1868 180.503 64.4157 177.929 65.58C177.349 65.8424 177 66 177 66ZM178.521 66.4096L199.777 96.1675L211.465 89.1547L222.651 81.6974C221.485 79.808 219.797 77.3615 218.305 75.222C218.094 74.9198 217.887 74.6239 217.687 74.3368C217.078 73.4646 216.526 72.6746 216.096 72.0452C215.811 71.6277 215.571 71.2693 215.401 70.9984C215.317 70.8647 215.241 70.7377 215.183 70.6286C215.154 70.5753 215.121 70.5092 215.092 70.4388C215.091 70.4376 215.09 70.4362 215.09 70.4346C215.085 70.4221 215.073 70.3954 215.061 70.3576C215.011 70.2846 214.931 70.1744 214.816 70.024C214.577 69.7103 214.223 69.2687 213.775 68.7247C212.881 67.6393 211.637 66.1743 210.244 64.5675C207.644 61.5672 204.544 58.0947 202.261 55.6958C201.945 55.8339 201.525 56.0178 201.029 56.2351C199.895 56.7317 198.366 57.4025 196.785 58.0995C193.604 59.5014 190.261 60.9877 189.447 61.3944C188.585 61.8257 185.562 63.211 182.783 64.4758C181.387 65.111 180.045 65.7199 179.051 66.1699C178.861 66.2559 178.684 66.3361 178.521 66.4096Z" fill="#A4CACF"/>
<path fill-rule="evenodd" clip-rule="evenodd" d="M172 96L82.7998 248.25H261.201L172 96ZM172 107.869L93.269 242.25H250.732L172 107.869Z" fill="#D36FB1"/>
<path d="M182.5 226L162.5 256.5L140 265C140 265 131 256.5 125.5 244.5C120 232.5 119 226 119 226H182.5Z" fill="#A4CACF"/>
<path fill-rule="evenodd" clip-rule="evenodd" d="M182.5 226H119C119 226 119.052 226.337 119.197 227C119.689 229.247 121.253 235.233 125.5 244.5C131 256.5 140 265 140 265L162.5 256.5L182.5 226ZM180.648 227L161.842 255.68L140.244 263.839C139.997 263.592 139.655 263.242 139.235 262.798C138.32 261.829 137.04 260.41 135.589 258.62C132.685 255.036 129.113 249.983 126.409 244.083C123.678 238.125 122.069 233.543 121.145 230.463C120.687 228.934 120.396 227.774 120.221 227H180.648Z" fill="#A4CACF"/>
<path d="M116 194L117 214.5C121.5 213.167 130.6 210.4 131 210C131.4 209.6 136.167 192.833 138.5 184.5L116 194Z" fill="#A4CACF"/>
<path fill-rule="evenodd" clip-rule="evenodd" d="M117 214.5C117.309 214.409 117.639 214.31 117.987 214.207C122.708 212.798 130.627 210.373 131 210C131.381 209.619 135.727 194.377 138.155 185.731C138.275 185.304 138.39 184.893 138.5 184.5L116 194L117 214.5ZM117.937 213.178C120.088 212.535 122.841 211.7 125.237 210.946C126.679 210.493 127.984 210.071 128.952 209.739C129.437 209.572 129.826 209.432 130.102 209.323C130.151 209.304 130.194 209.286 130.233 209.27C130.277 209.153 130.33 209 130.394 208.811C130.563 208.312 130.787 207.602 131.057 206.725C131.594 204.974 132.298 202.587 133.065 199.946C134.368 195.456 135.846 190.248 136.976 186.229L117.033 194.649L117.937 213.178Z" fill="#A4CACF"/>
<path d="M116.5 194L102.5 199L109.25 187L116 175L116.5 194Z" fill="#A4CACF"/>
<path fill-rule="evenodd" clip-rule="evenodd" d="M115.481 193.302L104.683 197.158L115.096 178.647L115.481 193.302ZM102.5 199L116.5 194L116 175L102.5 199Z" fill="#A4CACF"/>
</svg>
