<svg width="74" height="74" viewBox="0 0 74 74" fill="none" xmlns="http://www.w3.org/2000/svg">
<rect width="74" height="74" rx="37" fill="#103F58"/>
<path d="M32.3047 32.6328H36.1484C37.1328 32.6328 37.9375 32.4609 38.5625 32.1172C39.2031 31.7578 39.6797 31.2578 39.9922 30.6172C40.3047 29.9609 40.4609 29.1875 40.4609 28.2969C40.4609 27.6094 40.3125 26.9766 40.0156 26.3984C39.7344 25.8203 39.2969 25.3594 38.7031 25.0156C38.1094 24.6562 37.3516 24.4766 36.4297 24.4766C35.8047 24.4766 35.1953 24.6094 34.6016 24.875C34.0078 25.125 33.5156 25.4844 33.125 25.9531C32.75 26.4219 32.5625 26.9922 32.5625 27.6641H24.6406C24.6406 25.7266 25.1719 24.0703 26.2344 22.6953C27.3125 21.3047 28.7266 20.2422 30.4766 19.5078C32.2422 18.7578 34.1406 18.3828 36.1719 18.3828C38.5938 18.3828 40.7188 18.7578 42.5469 19.5078C44.375 20.2422 45.7969 21.3359 46.8125 22.7891C47.8438 24.2266 48.3594 26.0078 48.3594 28.1328C48.3594 29.3047 48.0859 30.4062 47.5391 31.4375C46.9922 32.4688 46.2266 33.375 45.2422 34.1562C44.2578 34.9375 43.1016 35.5547 41.7734 36.0078C40.4609 36.4453 39.0234 36.6641 37.4609 36.6641H32.3047V32.6328ZM32.3047 38.5156V34.5781H37.4609C39.1641 34.5781 40.7188 34.7734 42.125 35.1641C43.5312 35.5391 44.7422 36.1016 45.7578 36.8516C46.7734 37.6016 47.5547 38.5312 48.1016 39.6406C48.6484 40.7344 48.9219 41.9922 48.9219 43.4141C48.9219 45.0078 48.6016 46.4297 47.9609 47.6797C47.3203 48.9297 46.4219 49.9844 45.2656 50.8438C44.1094 51.7031 42.7578 52.3594 41.2109 52.8125C39.6641 53.25 37.9844 53.4688 36.1719 53.4688C34.75 53.4688 33.3281 53.2812 31.9062 52.9062C30.4844 52.5156 29.1875 51.9219 28.0156 51.125C26.8438 50.3125 25.8984 49.2812 25.1797 48.0312C24.4766 46.7656 24.125 45.2578 24.125 43.5078H32.0469C32.0469 44.2266 32.2422 44.8828 32.6328 45.4766C33.0391 46.0547 33.5781 46.5156 34.25 46.8594C34.9219 47.2031 35.6484 47.375 36.4297 47.375C37.3984 47.375 38.2188 47.1953 38.8906 46.8359C39.5781 46.4609 40.1016 45.9609 40.4609 45.3359C40.8203 44.7109 41 44.0156 41 43.25C41 42.0938 40.8047 41.1719 40.4141 40.4844C40.0391 39.7969 39.4844 39.2969 38.75 38.9844C38.0312 38.6719 37.1641 38.5156 36.1484 38.5156H32.3047Z" fill="white"/>
</svg>
