<svg width="74" height="74" viewBox="0 0 74 74" fill="none" xmlns="http://www.w3.org/2000/svg">
<rect width="74" height="74" rx="37" fill="#103F58"/>
<path d="M48.9219 46.9062V53H25.1094V47.8438L36.0781 36.3125C37.0469 35.2031 37.8281 34.2109 38.4219 33.3359C39.0156 32.4453 39.4453 31.6406 39.7109 30.9219C39.9922 30.2031 40.1328 29.5547 40.1328 28.9766C40.1328 27.9922 39.9844 27.1719 39.6875 26.5156C39.4062 25.8438 38.9844 25.3359 38.4219 24.9922C37.875 24.6484 37.1953 24.4766 36.3828 24.4766C35.5703 24.4766 34.8594 24.7109 34.25 25.1797C33.6406 25.6484 33.1641 26.2891 32.8203 27.1016C32.4922 27.9141 32.3281 28.8281 32.3281 29.8438H24.4062C24.4062 27.75 24.9141 25.8359 25.9297 24.1016C26.9609 22.3672 28.3906 20.9844 30.2188 19.9531C32.0469 18.9062 34.1641 18.3828 36.5703 18.3828C39.0859 18.3828 41.1953 18.7734 42.8984 19.5547C44.6016 20.3359 45.8828 21.4688 46.7422 22.9531C47.6172 24.4219 48.0547 26.1953 48.0547 28.2734C48.0547 29.4609 47.8672 30.6016 47.4922 31.6953C47.1172 32.7891 46.5781 33.875 45.875 34.9531C45.1719 36.0156 44.3125 37.1094 43.2969 38.2344C42.2969 39.3594 41.1562 40.5547 39.875 41.8203L35.4688 46.9062H48.9219Z" fill="white"/>
</svg>
