<svg width="240" height="240" viewBox="0 0 240 240" fill="none" xmlns="http://www.w3.org/2000/svg">
<g clip-path="url(#clip0_1438_4865)">
<path d="M5.12139 118.564C5.11576 138.729 10.4258 158.418 20.5226 175.772L4.15576 235.067L65.3108 219.156C82.2254 228.293 101.177 233.081 120.436 233.082H120.486C184.063 233.082 235.816 181.749 235.843 118.654C235.855 88.0802 223.866 59.3304 202.085 37.7007C180.306 16.0728 151.342 4.15556 120.482 4.1416C56.8977 4.1416 5.14857 55.4718 5.12232 118.564" fill="url(#paint0_linear_1438_4865)"/>
<path d="M1.00313 118.527C0.996563 139.417 6.49687 159.81 16.9537 177.786L0 239.207L63.3478 222.726C80.8022 232.168 100.454 237.147 120.451 237.154H120.502C186.36 237.154 239.972 183.975 240 118.621C240.011 86.9488 227.591 57.1656 205.031 34.7609C182.468 12.3591 152.468 0.0130233 120.502 0C54.6337 0 1.02938 53.1721 1.00313 118.527ZM38.7281 174.69L36.3628 170.965C26.4197 155.277 21.1716 137.149 21.1791 118.534C21.2006 64.213 65.7544 20.0186 120.54 20.0186C147.071 20.0298 172.005 30.2921 190.759 48.9116C209.512 67.533 219.831 92.2865 219.824 118.614C219.8 172.935 175.245 217.135 120.502 217.135H120.463C102.638 217.126 85.1569 212.376 69.9112 203.4L66.2831 201.265L28.6913 211.045L38.7281 174.689V174.69Z" fill="url(#paint1_linear_1438_4865)"/>
<path d="M90.6358 68.9751C88.399 64.0421 86.0449 63.9426 83.9177 63.856C82.1758 63.7816 80.1846 63.7872 78.1952 63.7872C76.204 63.7872 72.9687 64.5305 70.234 67.4933C67.4965 70.4588 59.7827 77.6253 59.7827 92.2012C59.7827 106.778 70.4824 120.864 71.974 122.843C73.4674 124.818 92.6299 155.687 122.979 167.562C148.201 177.431 153.334 175.468 158.808 174.973C164.283 174.48 176.474 167.809 178.961 160.89C181.451 153.973 181.451 148.044 180.704 146.805C179.958 145.57 177.967 144.829 174.981 143.348C171.994 141.866 157.315 134.699 154.578 133.71C151.841 132.722 149.85 132.229 147.859 135.196C145.868 138.157 140.15 144.829 138.407 146.805C136.666 148.785 134.923 149.032 131.938 147.55C128.951 146.063 119.335 142.939 107.926 132.847C99.0499 124.994 93.0574 115.296 91.3155 112.33C89.5737 109.368 91.129 107.762 92.6262 106.286C93.9677 104.958 95.613 102.826 97.1074 101.097C98.5962 99.3667 99.093 98.1323 100.089 96.1565C101.085 94.1788 100.586 92.4486 99.8412 90.9667C99.093 89.4849 93.2908 74.8328 90.6358 68.9751Z" fill="white"/>
</g>
<defs>
<linearGradient id="paint0_linear_1438_4865" x1="11588.5" y1="23096.7" x2="11588.5" y2="4.1416" gradientUnits="userSpaceOnUse">
<stop stop-color="#1FAF38"/>
<stop offset="1" stop-color="#60D669"/>
</linearGradient>
<linearGradient id="paint1_linear_1438_4865" x1="12000" y1="23920.7" x2="12000" y2="0" gradientUnits="userSpaceOnUse">
<stop stop-color="#F9F9F9"/>
<stop offset="1" stop-color="white"/>
</linearGradient>
<clipPath id="clip0_1438_4865">
<rect width="240" height="240" fill="white"/>
</clipPath>
</defs>
</svg>
